<?xml version="1.0" standalone="no"?>
<!DOCTYPE svg PUBLIC "-//W3C//DTD SVG 1.1//EN" "http://www.w3.org/Graphics/SVG/1.1/DTD/svg11.dtd" >
<svg xmlns="http://www.w3.org/2000/svg">
<metadata></metadata>
<defs>
<font id="balhamregular" horiz-adv-x="1126" >
<font-face units-per-em="2048" ascent="1638" descent="-410" />
<missing-glyph horiz-adv-x="460" />
<glyph horiz-adv-x="0" />
<glyph horiz-adv-x="682" />
<glyph unicode=" "  horiz-adv-x="460" />
<glyph unicode="&#x09;" horiz-adv-x="460" />
<glyph unicode="&#xa0;" horiz-adv-x="460" />
<glyph unicode="!" horiz-adv-x="374" d="M80 1444q0 47 28 87t70 40q43 0 69.5 -35.5t26.5 -93.5l-32 -983q0 -11 -22.5 -18t-41.5 -7q-16 0 -37.5 7.5t-21.5 15.5zM96 84q0 41 24 67.5t64 26.5q41 0 64.5 -26.5t23.5 -65.5q0 -38 -24 -65t-64 -27q-37 0 -62.5 26t-25.5 64z" />
<glyph unicode="&#x22;" horiz-adv-x="655" d="M76 1483q0 25 30 51.5t58 26.5q35 0 63.5 -26t28.5 -52q0 -67 -30.5 -195.5t-35.5 -189.5q-1 -20 -6.5 -27.5t-19.5 -7.5q-12 0 -20.5 10t-10.5 25q-4 64 -30.5 191.5t-26.5 193.5zM399 1483q0 25 30 51.5t58 26.5q35 0 64 -26t29 -52q0 -67 -30.5 -195.5t-35.5 -189.5 q-1 -20 -7 -27.5t-20 -7.5q-12 0 -20 10t-10 25q-4 64 -31 191.5t-27 193.5z" />
<glyph unicode="#" horiz-adv-x="1280" d="M70 428l22 88l248 4l59 383l-264 -2l27 92l254 2l59 383l111 6l-62 -387l357 4l57 365l115 6l-60 -368l238 2l-31 -95l-223 -2l-62 -379l279 5l-29 -91l-264 -4l-65 -407l-111 -8l66 413l-359 -4l-63 -401l-107 -6l64 405zM446 522l359 6l61 379l-358 -2z" />
<glyph unicode="$" d="M60 264q-15 34 16 31q6 0 14 -2q16 -4 25.5 -13.5t52.5 -61.5q25 -30 41 -50q32 -40 89 -77t126 -58l2 688l-14 6q-33 12 -52 20t-51 24.5t-51 32.5t-42.5 43t-37 57.5t-22.5 74t-9 94.5q0 122 81 211t202 127v160l47 -2v-146q43 9 88 9t109 -11v156h43v-166 q98 -25 207 -129q75 -70 83 -106q3 -16 -12 -15q-16 1 -21.5 2.5t-12.5 3t-13.5 10t-15 17t-27 30.5t-39.5 44q-78 78 -149 98v-586q78 -30 127 -59q24 -13 45.5 -29t49.5 -45.5t47.5 -64t33.5 -84.5t14 -107q0 -145 -86 -249.5t-233 -143.5v-258l-45 -2v250q-70 -8 -109 -8 q-28 0 -86 4v-246l-53 -2l2 256q-118 23 -251 139q-91 79 -113 133zM244 1135q0 -109 45 -166.5t137 -94.5l4 494q-82 -27 -134 -85.5t-52 -147.5zM475 23q40 -7 68 -7q57 0 127 17l2 606q-27 12 -59 23t-72.5 23t-63.5 20zM477 856q27 -10 93 -29t102 -32l2 583 q-64 11 -115 11q-41 0 -82 -9v-524zM715 47q96 35 154.5 106.5t58.5 178.5q0 99 -56.5 169.5t-142.5 112.5l-14 7v-574z" />
<glyph unicode="%" horiz-adv-x="1841" d="M59 891q0 110 78 221.5t187.5 179.5t203.5 68q56 0 97.5 -15t67 -43t39.5 -56t24 -64q129 -3 242.5 63.5t267.5 220.5q47 50 88 113q10 16 22 10q2 -1 10 -4t13 -6q14 -8 4 -23q-61 -105 -303 -544.5t-457 -833.5t-221 -409q-15 -34 -39 -37q-7 0 -43 -2t-45 -2 q-12 0 -17 7.5t-3 17.5t8 18q18 21 788 1315q117 196 182 305q-82 -79 -154.5 -133t-162.5 -91.5t-172 -33.5q-7 -135 -68.5 -260t-158.5 -202t-201 -77q-70 0 -125 26t-87 69.5t-48.5 94.5t-16.5 107zM178 780q0 -55 42.5 -94t90.5 -39q155 0 266 139.5t130 354.5 q-108 38 -103 153q-20 17 -59 17q-78 0 -161 -90t-142 -217q-23 -48 -43.5 -116t-20.5 -108zM1059 356q0 97 45.5 190t115 159t154.5 106.5t164 40.5q87 0 148 -63.5t61 -204.5q0 -67 -19.5 -141t-57 -144t-87 -126t-116 -90t-138.5 -34q-120 0 -195 91t-75 216zM1198 268 q0 -74 40 -116.5t116 -42.5q87 0 166.5 83t123.5 194t44 204q0 110 -42.5 156.5t-105.5 46.5q-96 0 -168 -85.5t-131 -234.5q-15 -39 -29 -102t-14 -103z" />
<glyph unicode="&#x26;" horiz-adv-x="1626" d="M150 354q-5 82 13.5 152t49.5 117t79 87t89 63t92 44q-7 15 -35.5 73.5t-40.5 86.5t-26 79.5t-17 98.5q-5 81 28.5 159.5t105 134.5t163.5 62q164 11 263 -67t106 -189q15 -232 -363 -415q36 -67 99.5 -151t116 -142.5t137.5 -149t116 -125.5q71 90 105 219t29 220l112 8 q-13 -33 -43 -136t-67.5 -190.5t-92.5 -152.5l308 -209l-123 -13q-91 -6 -159.5 14.5t-129.5 73.5q-164 -122 -395 -124q-73 -1 -142 10t-136.5 38.5t-118 68.5t-84.5 107t-39 148zM324 410q4 -69 27 -126.5t58 -96t80 -68t93 -41t96.5 -16.5t91.5 6q46 9 69.5 14t49 13.5 t32 11t40.5 19t51 24.5q-3 4 -41.5 44.5t-52.5 55.5t-55 59t-62 67.5t-59.5 67t-62 72t-55.5 68t-53 68.5t-42 60.5t-35 57.5q-88 -31 -133.5 -127.5t-36.5 -232.5zM506 1235q7 -115 35 -187t98 -169q85 46 137 93.5t79 112.5t22 148q-7 122 -53 172.5t-140 44.5 q-55 -4 -92.5 -21.5t-56.5 -47t-25.5 -65t-3.5 -81.5z" />
<glyph unicode="'" horiz-adv-x="376" d="M88 1483q0 25 30 51.5t58 26.5q35 0 63.5 -26t28.5 -52q0 -67 -30 -195.5t-35 -189.5q-1 -20 -7 -27.5t-20 -7.5q-12 0 -20.5 10t-10.5 25q-4 64 -30.5 191.5t-26.5 193.5z" />
<glyph unicode="(" horiz-adv-x="610" d="M63 561q0 136 20 253t53.5 209t89 181.5t114.5 160.5t143 157q15 13 41 -13q12 -14 13.5 -22t-7.5 -19q-88 -93 -143 -183t-85.5 -201t-41 -229.5t-10.5 -293.5q0 -362 67.5 -581t223.5 -369q18 -18 -9 -39q-23 -21 -36 -8q-49 53 -81.5 90.5t-82 102t-83 120.5 t-72 136.5t-61 160t-38 180t-15.5 207.5z" />
<glyph unicode=")" horiz-adv-x="610" d="M72 -389q156 150 223 368.5t67 581.5q0 175 -10.5 293.5t-41 229.5t-85.5 201t-143 183q-9 11 -7.5 19t13.5 22q27 27 41 13q84 -86 143 -157t114.5 -160.5t89 -181.5t53.5 -209t20 -253q0 -107 -15.5 -207.5t-38 -180t-60.5 -160t-71.5 -136.5t-83 -120.5t-82 -102 t-81.5 -90.5q-13 -13 -37 8q-27 20 -8 39z" />
<glyph unicode="*" horiz-adv-x="1064" d="M156.5 1244.5q-11.5 35.5 9.5 68.5q18 32 54 34.5t67 -18.5q31 -18 56.5 -48.5t59 -66t86.5 -65.5q17 -11 9 -27q-12 -18 -27 -12q-72 41 -147.5 50t-112.5 28q-43 21 -54.5 56.5zM157.5 956q13.5 32 47.5 50q22 11 63.5 15.5t94.5 17t106 42.5q19 11 29 -4 q6 -8 5.5 -14.5t-11.5 -13.5q-44 -26 -74 -54t-42.5 -48t-33.5 -42.5t-49 -38.5q-86 -51 -131 23q-18 35 -4.5 67zM449 770q0 36 15.5 70.5t31.5 82t16 113.5q0 13 3 17t13 4q12 0 16.5 -3t4.5 -14q0 -51 10 -91.5t21.5 -61.5t21.5 -50.5t10 -62.5q0 -100 -86 -100 q-36 0 -56.5 28.5t-20.5 67.5zM453 1419q0 103 82 103q36 0 56.5 -28.5t20.5 -68.5q0 -39 -29.5 -114t-29.5 -152q0 -20 -21 -20q-11 0 -15.5 3t-4.5 13q0 65 -15 109.5t-29.5 79.5t-14.5 75zM567 1073q5 11 8.5 13t14.5 -1q57 -32 108.5 -42t92 -14t71.5 -21 q84 -47 43 -119q-19 -32 -57 -37.5t-68 14.5q-26 15 -47 37.5t-35 43t-46 49t-77 53.5q-18 10 -8 24zM567 1114q-10 20 4 29q45 24 75 51.5t42 48t33 43.5t49 39q44 26 80.5 22t56.5 -38q19 -31 1.5 -64.5t-52.5 -54.5q-32 -18 -72.5 -23.5t-88.5 -16.5t-101 -42 q-16 -11 -27 6z" />
<glyph unicode="+" horiz-adv-x="1212" d="M125 670v104h440v426h107v-426h428v-104h-428v-424h-107v424h-440z" />
<glyph unicode="," horiz-adv-x="401" d="M55 -311q105 71 162 151q37 49 37 94q0 20 -13 33.5t-30 16.5q-64 6 -104.5 34.5t-40.5 77.5q0 48 29.5 80.5t84.5 32.5q44 0 86 -28t62 -83q12 -32 12 -98q0 -55 -16 -94q-45 -121 -226 -250q-10 -9 -16.5 -8.5t-15.5 10.5q-20 24 -11 31z" />
<glyph unicode="-" horiz-adv-x="468" d="M45 414v82q0 10 7 17t18 7h168q34 0 71.5 0.5t62 1t25.5 0.5q29 -3 29 -22v-78q0 -13 -9.5 -22t-19.5 -9q-4 0 -23 1.5t-55 3t-81 1.5h-164q-29 0 -29 17z" />
<glyph unicode="." horiz-adv-x="399" d="M82 86q0 54 32 88.5t85 34.5q55 0 86.5 -33.5t31.5 -83.5q0 -49 -32 -84t-84 -35q-50 0 -84.5 33.5t-34.5 79.5z" />
<glyph unicode="/" horiz-adv-x="675" d="M37 -92l498 1648l112 -30l-500 -1647z" />
<glyph unicode="0" d="M86 711q0 147 33 272t85 207.5t117 141t128.5 84.5t121.5 26q83 0 166 -50.5t150.5 -140.5t110 -228.5t42.5 -299.5q0 -143 -28 -268.5t-75 -215t-107 -155t-125.5 -97.5t-129.5 -32q-67 0 -134.5 28.5t-131.5 90t-113.5 148.5t-79.5 213.5t-30 275.5zM279 729 q0 -160 14 -283t39 -203t62.5 -131t80 -72.5t94.5 -21.5q40 0 76 14.5t76 58.5t68.5 114.5t47.5 193.5t19 285q0 186 -20.5 322t-58 215.5t-86 117t-109.5 37.5q-55 0 -98.5 -18t-83 -63t-65.5 -117.5t-41 -186t-15 -262.5z" />
<glyph unicode="1" d="M311 1274q-3 19 13 22q45 9 75.5 17t59.5 22t42.5 21.5t49.5 32t55 36.5q15 8 21.5 3t3.5 -19v-1104v-301h-5h-5h-5h-4h-5h-5h-5h-6h-5h-5h-5h-5h-6h-5h-6h-5h-6h-6h-6h-6h-6h-7h-7h-9h-2v293q0 32 1 394.5t1 406.5q0 45 -1 69.5t-7.5 46t-14.5 29.5t-29 13.5t-43.5 4.5 t-64.5 -4q-22 -2 -25 17z" />
<glyph unicode="2" d="M90 70q47 74 100.5 145t120.5 145.5t108.5 119t121 125t102.5 104.5q186 192 186 381q0 133 -74 208.5t-180 77.5q-63 1 -117 -21.5t-87 -54t-57.5 -63t-38 -51t-17.5 -15.5l-10 5q-20 4 14.5 68.5t121.5 128.5t194 63q191 -2 309.5 -92t118.5 -261q0 -64 -15.5 -120.5 t-36.5 -95.5t-64.5 -85t-75 -73t-93.5 -76q-349 -277 -485 -469q-7 -10 -5.5 -19.5t9.5 -9.5h761l-2 -135h-907z" />
<glyph unicode="3" d="M57 309l33 -14q72 -95 157.5 -154.5t165.5 -76.5t155 -2t129.5 59t85.5 117.5t26 164.5q-4 81 -36 147t-81 107t-107 62.5t-118 21.5l2 54q78 0 152.5 38.5t126 114.5t51.5 170q0 89 -45 153.5t-110.5 94t-141.5 29.5q-40 0 -78 -11.5t-63 -23.5t-58 -40.5t-44.5 -40.5 t-42.5 -47.5t-34 -39.5l-12 2q-8 8 2.5 35.5t39.5 63.5t69.5 70.5t99.5 60t121 28.5q117 6 214 -29.5t156.5 -113t59.5 -183.5q0 -270 -307 -360q389 -66 389 -379q0 -113 -67.5 -208.5t-180 -149.5t-242.5 -54q-205 0 -359 150q-79 77 -107 149q-12 33 -1 35z" />
<glyph unicode="4" d="M82 362v48q0 23 14 39l635 981h66v-1430h-142l-2 350q-430 -4 -553 -4q-18 0 -18 16zM147 410l506 -4l-8 794z" />
<glyph unicode="5" d="M120 185q-14 34 13 32l17 -20q102 -85 198.5 -124.5t170.5 -34.5t136.5 38t103 89t63 123t22.5 136q0 88 -19 158.5t-48.5 113.5t-68.5 72t-76 40t-75 11q-97 0 -179.5 -35.5t-131.5 -99.5q-22 -29 -31 -25q-8 3 -18 6t-15 5q-7 3 -8.5 4.5t0.5 9.5l62 723 q116 0 287.5 2.5t299.5 5t138 2.5q23 0 12 -20q-13 -24 -31 -76q-450 -4 -627 -4q-11 0 -15 -3.5t-5 -13.5q-4 -111 -45 -532q165 137 323 137q62 0 123 -13.5t121.5 -47t106 -83t74 -127.5t28.5 -175q0 -111 -45 -205t-119 -156t-168 -96.5t-194 -34.5q-153 0 -285 107 q-75 60 -95 111z" />
<glyph unicode="6" d="M92 651q0 127 26 247t76 220t117.5 175.5t156 118t187.5 42.5q150 0 259 -75q61 -42 64 -74q2 -17 -17 -21l-54 33q-160 78 -278.5 63t-197.5 -113t-118 -255.5t-39 -364.5q70 105 167.5 169.5t201.5 64.5q108 0 200 -49t150 -146t58 -223q0 -129 -62.5 -242.5 t-170.5 -181.5t-232 -68q-99 0 -186.5 42.5t-157 124.5t-110 214t-40.5 299zM272 561q1 -261 83.5 -403t230.5 -142q131 0 204.5 106t73.5 312q0 185 -68 271t-182 86q-50 0 -96 -15.5t-77.5 -35t-67 -56t-53.5 -59.5t-48 -64z" />
<glyph unicode="7" d="M143 1419h873q20 0 20 -39q0 -7 0.5 -16t0.5 -12.5t-1.5 -10t-5 -12.5t-10.5 -16q-148 -226 -303 -602q-75 -181 -107 -315.5t-32 -323.5q0 -62 -12 -89.5t-54 -27.5q-36 0 -47.5 24.5t-11.5 88.5q0 162 47.5 354t113.5 315q74 140 169.5 294t168.5 255q-291 6 -796 6z " />
<glyph unicode="8" d="M55 299q-2 61 16 113.5t48 91.5t82 77.5t102.5 66.5t124.5 63q-118 49 -193 133t-79 205q-4 107 43.5 198.5t137.5 147t202 57.5q101 2 189 -28t148 -95t66 -153q6 -92 -18 -155.5t-74.5 -110.5t-151.5 -111q167 -55 273 -170.5t112 -259.5q4 -111 -62 -204.5 t-178 -147.5t-243 -58q-100 -4 -195 16.5t-172.5 62t-126 109.5t-51.5 152zM211 326q5 -113 113.5 -210t240.5 -93q107 4 187 36t129 101t45 168q-1 37 -9 68.5t-26.5 59t-38 49.5t-53.5 44t-62.5 38t-77 36t-84.5 33.5t-96 35.5q-136 -79 -203.5 -168t-64.5 -198zM264 1126 q3 -106 99 -180t282 -129q79 43 121 125.5t39 171.5q-4 126 -75 204t-177 75q-122 -5 -207.5 -79t-81.5 -188z" />
<glyph unicode="9" d="M76 963q0 97 37.5 187t99.5 157t148.5 107t179.5 40q99 0 186.5 -42.5t156.5 -124t109.5 -213.5t40.5 -298q0 -126 -29 -248t-81 -221.5t-120 -175.5t-150.5 -117.5t-168.5 -40.5q-175 2 -284 89q-57 45 -60 80q-2 21 19 20l20 -12q128 -96 238 -115.5t189 29t135 150.5 t83 246t27 318q-70 -104 -167.5 -167.5t-201.5 -63.5q-80 0 -153.5 28.5t-130 80.5t-90 132t-33.5 175zM262 991q0 -184 68 -270t182 -86q50 0 96 15.5t77 34.5t67.5 56.5t53.5 59t48 63.5q-1 262 -83 403.5t-230 141.5q-131 0 -205 -105.5t-74 -312.5z" />
<glyph unicode=":" horiz-adv-x="399" d="M82 86q0 54 32 88.5t85 34.5q55 0 86.5 -33.5t31.5 -83.5q0 -49 -32 -84t-84 -35q-50 0 -84.5 33.5t-34.5 79.5zM82 768q0 54 32 88.5t85 34.5q55 0 86.5 -33.5t31.5 -83.5q0 -49 -32 -84t-84 -35q-50 0 -84.5 33.5t-34.5 79.5z" />
<glyph unicode=";" horiz-adv-x="401" d="M55 -311q105 71 162 151q37 49 37 94q0 20 -13 33.5t-30 16.5q-64 6 -104.5 34.5t-40.5 77.5q0 48 29.5 80.5t84.5 32.5q44 0 86 -28t62 -83q12 -32 12 -98q0 -55 -16 -94q-45 -121 -226 -250q-10 -9 -16.5 -8.5t-15.5 10.5q-20 24 -11 31zM82 770q0 52 32 86.5t85 34.5 q55 0 86.5 -33.5t31.5 -83.5q0 -49 -32 -84t-84 -35q-51 0 -85 33t-34 82z" />
<glyph unicode="&#x3c;" horiz-adv-x="1214" d="M82 610v115l1057 549v-125l-922 -483l932 -531v-135z" />
<glyph unicode="=" horiz-adv-x="1212" d="M125 401v105h975v-105h-975zM125 872v105h975v-105h-975z" />
<glyph unicode="&#x3e;" horiz-adv-x="1214" d="M70 0v135l931 531l-921 483v125l1057 -549v-115z" />
<glyph unicode="?" horiz-adv-x="825" d="M78 1351q29 63 105 106q80 46 182 44q40 -1 87.5 -14.5t98.5 -44t92 -74t67.5 -111t26.5 -147.5q0 -82 -25 -151.5t-64.5 -115.5t-89 -78t-97.5 -46t-92 -14q1 0 0 -39.5t-2.5 -104t-1.5 -106.5q0 -26 -9 -35.5t-30 -9.5q-20 0 -29 9t-10 36q-6 170 -6 360q0 35 28 35 q121 0 217.5 83.5t96.5 209.5q0 76 -49.5 152.5t-136 116.5t-204.5 -3q-34 -13 -58 -32.5t-33 -36t-19.5 -31.5t-17 -18t-25.5 3q-23 11 -2 57zM233 86q0 47 28 77t75 30q48 0 75 -29t27 -74q0 -42 -28.5 -72t-73.5 -30q-44 0 -73.5 28.5t-29.5 69.5z" />
<glyph unicode="@" horiz-adv-x="1779" d="M61 479q0 145 41 276.5t111.5 233t165.5 184t203.5 136t223.5 82t228 28.5q152 0 282 -45.5t224 -128.5t147.5 -206.5t53.5 -272.5q0 -123 -48.5 -246.5t-123 -214.5t-168 -148t-180.5 -57q-218 0 -181 236q-170 -240 -329 -240q-120 0 -184 77t-64 202q0 127 48.5 248.5 t121 205.5t155.5 135.5t152 51.5q58 0 99 -18t61 -48.5t29 -61t10 -65.5q40 62 82 160q9 21 24 21q4 0 35.5 -2.5t40.5 -2.5q27 0 16 -20l-190 -604q-18 -44 -19 -93t22 -87.5t71 -38.5q75 0 156.5 50.5t149 132t111 196t43.5 231.5q0 140 -49 254t-135.5 189.5t-204.5 116 t-256 40.5q-152 0 -303.5 -72.5t-269 -193t-191 -289t-73.5 -348.5q0 -108 24.5 -203t66.5 -166.5t99 -130.5t122 -99t136.5 -67.5t140.5 -40t136 -12.5q433 0 731 377q13 16 35 0q24 -16 10 -33q-309 -395 -772 -395q-185 0 -348 65t-276 173t-178 251.5t-65 296.5z M590 358q0 -66 33.5 -135t76.5 -69q30 0 57 8.5t47.5 19.5t43.5 36t36.5 41.5t35.5 54.5t32 56.5t33.5 66t32.5 65.5q32 63 52 147t20 146q0 166 -125 166q-77 0 -151.5 -56t-115.5 -147q-108 -242 -108 -400z" />
<glyph unicode="A" horiz-adv-x="1568" d="M156 -3q0 1 5 2l-1 1l530 1450l139 63q27 0 33 -22l524 -1491h-188l-178 537q-95 0 -227 -0.5t-226.5 -1t-97.5 -0.5q-37 0 -43 -21q-7 -15 -30.5 -78.5t-66.5 -189.5t-81 -250h-51q-41 0 -41 1zM466 607q4 -9 15 -9h510l-264 752q-251 -704 -258 -719q-4 -9 -4 -16 q-1 -4 1 -8z" />
<glyph unicode="B" horiz-adv-x="1374" d="M283 6v1491h393q145 0 265 -37.5t196.5 -118t76.5 -190.5q0 -60 -24.5 -112.5t-60.5 -88t-86 -65.5t-92.5 -47.5t-88.5 -30.5q-5 -1 -6.5 -3.5t0.5 -5t6 -3.5q90 -13 167.5 -43t140 -77.5t98 -117.5t35.5 -154q0 -184 -157.5 -293.5t-395.5 -109.5q-53 0 -246.5 3 t-220.5 3zM444 821q67 0 263 8q149 4 228 93t79 235q0 149 -92 218t-289 69h-48h-14q-85 0 -104 -12q-20 -12 -21 -80q-2 -104 -2 -531zM446 143q0 -26 6.5 -44t14.5 -27t26 -13.5t29 -5.5t36 0h11q152 0 201 2q37 1 73.5 8.5t84.5 31t83 59.5t59 102q24 63 24 145v7 q-1 89 -32.5 157t-86.5 109t-124.5 61.5t-150.5 20.5q-44 0 -137 2t-94 2q-23 0 -23 -19v-598z" />
<glyph unicode="C" horiz-adv-x="1423" d="M88 717q0 147 41.5 278t111 226t158.5 164t185 103q91 32 180 32h10q170 -3 280.5 -61t241.5 -220q5 -8 2.5 -15t-10.5 -10q-8 -4 -12 -8q-3 -4 -15 -1.5t-16 9.5q-71 118 -187 184q-107 60 -244 61q-13 0 -26 -1q-48 -2 -93 -12.5t-93.5 -35t-90 -61t-79 -95t-64 -132.5 t-42 -176.5t-15.5 -224.5q0 -115 18 -211.5t48.5 -164.5t72.5 -121t87 -85.5t96.5 -53t97 -28.5t90.5 -8q188 0 302 92t210 293q3 6 11.5 11.5t11.5 3.5q1 -1 7 -5t11.5 -7t7.5 -3t4 -4q3 -5 3 -12q0 -5 -3 -10q-70 -202 -223.5 -323.5t-349.5 -121.5q-109 0 -212.5 28.5 t-196.5 90t-163 148.5t-111.5 212.5t-41.5 274.5z" />
<glyph unicode="D" horiz-adv-x="1583" d="M279 0l2 1487q19 0 208.5 2t305.5 2q75 0 162 -24.5t181 -82t169.5 -139.5t124.5 -209t49 -278q0 -147 -40 -271.5t-110 -213.5t-164.5 -151t-205 -92t-230.5 -30h-452zM463 141q0 -72 6 -82t51 -10q13 -3 66 -3q26 0 62 1q108 2 188 10q62 7 117 26.5t115.5 68 t103.5 120.5t71.5 193.5t28.5 277.5q0 227 -55.5 377t-157 224t-252.5 88q-77 6 -264 6q-56 0 -68 -9.5t-12 -60.5v-1227z" />
<glyph unicode="E" horiz-adv-x="1419" d="M272 4v1493l1051 -2v-53h-762q-48 0 -69 -17t-21 -65q0 -24 -3 -275.5t-3 -255.5q0 -15 3 -20.5t13 -5.5h187v-49h-179q-22 0 -22 -17l2 -547q0 -66 19 -95t75 -29h760v-62h-1051z" />
<glyph unicode="F" horiz-adv-x="1316" d="M274 2v1493h893l-2 -59l-598 -2q-47 -10 -75.5 -39t-28.5 -76v-490q0 -26 16 -26h187l2 -53h-179q-22 0 -22 -13v-741z" />
<glyph unicode="G" horiz-adv-x="1550" d="M102 700q0 137 39.5 264t107.5 224.5t156 172t188.5 116.5t201.5 49q24 2 48 2q74 0 139 -17q86 -22 138.5 -58.5t88 -75.5t49 -67.5t8.5 -33.5q-9 -9 -25 -12q-14 -3 -22 10q-109 196 -396 196h-12q-43 0 -85 -9.5t-91 -33t-92 -60.5t-83.5 -97.5t-69.5 -138 t-46.5 -188.5t-17.5 -243q0 -133 21.5 -241t54 -176.5t80 -119.5t89.5 -76t92.5 -39.5t79.5 -17.5t60 -3q213 2 289.5 29.5t76.5 105.5q0 38 -2 174t-2 164q0 32 -6.5 52t-15.5 30t-29 14t-36.5 3.5t-49 -1.5t-55.5 0q-15 0 -15 12v29q0 16 15 16l325 -6v-676l-499 2 q-159 1 -292 60t-220.5 159t-136 230.5t-48.5 275.5z" />
<glyph unicode="H" horiz-adv-x="1683" d="M281 -4v1499h172v-696h768v694h174v-1499l-174 2v733l-768 2v-735h-172z" />
<glyph unicode="I" horiz-adv-x="786" d="M307 -4l2 1499h172v-1499h-174z" />
<glyph unicode="J" horiz-adv-x="804" d="M-44 -125q-1 4 -1 8q0 16 14 25q13 8 30 -3t37.5 -33t44 -45.5t59.5 -40.5q33 -15 69 -15h4q32 1 58 12t42 26.5t28 38t18 42t9.5 44t4 37t0.5 27.5v1415l168 88v-1503q0 -146 -91 -219.5t-235 -73.5q-91 0 -183 71q-68 54 -76 99z" />
<glyph unicode="K" horiz-adv-x="1599" d="M289 1489l168 2v-821l803 821h98l-565 -557l657 -930h-197l-583 807l-211 -219l-2 -592h-166z" />
<glyph unicode="L" horiz-adv-x="1339" d="M293 -4v1493h178v-1342q0 -69 11.5 -80.5t78.5 -11.5h707v-59h-975z" />
<glyph unicode="M" horiz-adv-x="1941" d="M283 -2v1497h188q2 1 6 1h3h2q2 0 5 -1t5 -3.5t4 -6.5q11 -37 483 -1223l483 1233h201v-1497h-178v1378q-61 -156 -207 -526t-225.5 -573t-106.5 -277q-6 -12 -20 -12h-21q-13 0 -16 12q-23 64 -109 283t-216.5 550t-213.5 543v-1378h-67z" />
<glyph unicode="N" horiz-adv-x="1679" d="M311 0v1499h148q22 0 33 -16q6 -8 411.5 -576.5t411.5 -576.5t14 -6t8 12v1163h70q0 -51 -1 -437q-2 -384 -2 -642v-154q0 -135 1 -196v-80q0 -19 -25 -19q-17 0 -23.5 3.5t-13.5 13.5q-13 25 -73.5 110.5t-165.5 229.5t-208 283.5t-252.5 341.5t-246.5 335q-2 4 -8.5 5 t-7.5 -7v-1286h-70z" />
<glyph unicode="O" horiz-adv-x="1609" d="M102 723q0 150 41 282t110 226t158.5 162t188 101.5t197.5 33.5q132 0 258.5 -53.5t227.5 -149t162.5 -241t61.5 -316.5q0 -181 -56.5 -332.5t-152.5 -251t-221.5 -154.5t-265.5 -55q-137 0 -266 57.5t-227 156t-157 238.5t-59 296zM319 754q0 -144 21.5 -259.5 t54 -189.5t80.5 -129t91 -82t95.5 -43t83.5 -19t66 -3q36 0 72.5 6t85.5 25t92 49.5t86 86t73.5 127.5t50 179.5t19.5 238.5q0 129 -18.5 237t-48.5 181.5t-72 130t-85 89t-91 53t-85.5 27.5t-74.5 7q-30 0 -57.5 -2.5t-67 -11t-73 -23t-72.5 -41.5t-70 -63t-61 -90.5 t-50.5 -122t-32.5 -159t-12 -199.5z" />
<glyph unicode="P" horiz-adv-x="1343" d="M291 0v1489q19 0 187 1t284 1q58 0 122 -15.5t128 -48.5t114.5 -79t82.5 -113t32 -143q0 -81 -32 -149t-85 -113.5t-124 -77t-147.5 -46t-156.5 -14.5q-48 0 -97 0.5t-79.5 1t-34.5 0.5q-13 0 -16.5 -4t-3.5 -14v-676h-174zM462 1128.5q0 -82.5 0.5 -160t0.5 -136.5v-58 q0 -20 20 -20q36 0 124 1t108 1q147 5 232 85.5t85 237.5q0 60 -4 100t-19.5 86t-44 76t-80 55t-124.5 38q-22 4 -68 4q-11 0 -24 1q-36 1 -80 -1q-58 -2 -68 -2q-43 0 -49 -8.5t-8 -65.5q-1 -19 -1 -85v-148.5z" />
<glyph unicode="Q" horiz-adv-x="1544" d="M102 754q0 142 36.5 267t100.5 217t148.5 158.5t182.5 100t200 33.5q84 0 167.5 -26t157 -73.5t137 -117t109 -153t71.5 -185.5t26 -211q0 -104 -32.5 -210t-86.5 -194t-122 -164t-141.5 -128.5t-142.5 -79.5q5 -4 23 -18t24 -18t24 -15.5t30.5 -14t35.5 -9t46.5 -5.5 t56 1.5t72 6t86.5 14.5l-2 -129q-40 6 -76 6q-14 0 -27 -1q-24 -1 -50 -1t-54 1q-57 4 -109.5 14.5t-117.5 49t-130 103.5q-149 7 -272 74t-203 174.5t-124 245t-44 287.5zM309 758q0 -113 12 -208.5t32 -164t49.5 -124.5t59 -91.5t66.5 -61.5t67.5 -39.5t66 -21t56.5 -9 t46 -1.5q31 0 62 4.5t78.5 21.5t88.5 46t85 84t74.5 128t50.5 185.5t20 249.5q0 124 -17.5 228.5t-46.5 175.5t-68.5 127t-80.5 88.5t-86.5 53t-81.5 28t-70 7.5q-38 0 -72.5 -4.5t-83 -22t-89 -46.5t-82 -83t-70.5 -126t-47.5 -181t-18.5 -243z" />
<glyph unicode="R" horiz-adv-x="1460" d="M301 -2v1509h434q267 0 412 -102t145 -287q0 -79 -41 -147t-106 -112.5t-140.5 -72t-150.5 -34.5q469 -712 498 -752l-240 2l-393 737h-232v-739zM487 805q252 0 285 4q307 35 307 305q0 72 -13 124t-45.5 96.5t-94.5 71.5t-154 36q-58 4 -109 4q-37 0 -71 -2 q-77 -5 -91 -12t-14 -50v-577z" />
<glyph unicode="S" horiz-adv-x="1216" d="M98 272q8 14 11 15h2q16 0 55 -31q42 -33 91 -74.5t126 -76.5t152 -35q190 0 318.5 86.5t131.5 222.5v6q-1 43 -15 81q-16 40 -48.5 72t-67.5 55.5t-88.5 45.5t-92.5 36t-98 33t-88 29l-52.5 19.5t-60 26.5t-68 38.5t-60.5 50.5t-55 66.5t-35 83.5t-15 104 q0 113 61 205.5t153.5 142t193.5 52.5h29q112 0 196 -27q94 -31 149.5 -85.5t94.5 -139.5q5 -13 -4 -19l-7 -3.5t-8.5 -4t-8 -2.5t-8 1t-5.5 7q-71 123 -171 170q-95 45 -241 45h-12q-122 -1 -203.5 -76t-81.5 -178q0 -180 236 -260q29 -10 156.5 -50t187.5 -66 q51 -22 95.5 -55.5t84.5 -82.5t63 -119.5t23 -154.5q0 -188 -164 -314q-158 -122 -410 -122h-16q-60 1 -127.5 27t-121 64t-97.5 77q-42 40 -64 72q-17 25 -17 36q0 4 1 6z" />
<glyph unicode="T" horiz-adv-x="1476" d="M37 1442v59h1407v-59h-535q-13 0 -22.5 -0.5t-17.5 -0.5t-13.5 -3t-9.5 -3.5t-6.5 -6.5t-4.5 -7.5t-2.5 -10.5t-0.5 -12.5t-0.5 -16.5t-0.5 -19l-4 -1362h-172v1362q0 56 -11 66.5t-75 11.5z" />
<glyph unicode="U" horiz-adv-x="1667" d="M274 477v1016h181v-954q0 -250 107.5 -376t297.5 -126q103 0 183.5 25.5t132 69t85 105.5t47 129.5t13.5 145.5v981h76v-981q0 -249 -137.5 -396t-397.5 -147q-276 0 -432 127t-156 381z" />
<glyph unicode="V" horiz-adv-x="1529" d="M174 1479h176l473 -1270l457 1270h82q-7 -19 -129.5 -347t-262 -703.5t-177.5 -475.5q-4 -12 -7.5 -14t-17.5 -2q-13 0 -18.5 4t-10.5 16q-48 144 -274 748.5t-291 773.5z" />
<glyph unicode="W" horiz-adv-x="2115" d="M184 1481h181l368 -1231l385 1212l383 -1204q32 106 134 442.5t165 546t68 234.5h76q-6 -16 -237.5 -756.5t-246.5 -773.5q-2 -4 -3.5 -9t-3 -6t-4 -1.5t-9.5 -0.5q-24 0 -29 21q-49 235 -344 1161q-32 -105 -123 -390.5t-157.5 -499t-77.5 -267.5q-1 -3 -1.5 -5.5t-2 -4 l-2.5 -2.5t-3.5 -2t-3.5 -1.5t-4.5 -0.5h-4.5h-5h-6q-28 0 -33 20q-18 92 -228 777t-231 741z" />
<glyph unicode="X" horiz-adv-x="1443" d="M156 -2l485 735q-121 192 -290 453t-191 289h194l391 -611l424 611h76l-465 -664l545 -811h-178l-467 680l-426 -682h-98z" />
<glyph unicode="Y" horiz-adv-x="1546" d="M154 1495h221q0 -22 454 -788q54 87 178.5 287t213 343t96.5 158h84q-23 -28 -237.5 -371.5t-295.5 -486.5v-635h-176v602z" />
<glyph unicode="Z" horiz-adv-x="1140" d="M40 22q-2 8 -3 15q0 13 8 22q294 456 468 738t372 635h-836v55h1012q13 0 14.5 -17.5t-6.5 -27.5l-809 -1358l873 -2v-82h-1063q-24 0 -30 22z" />
<glyph unicode="[" horiz-adv-x="557" d="M131 -295v1821h350v-66h-200v-1689h225v-66h-375z" />
<glyph unicode="\" horiz-adv-x="675" d="M37 1526l113 30l497 -1648l-110 -29z" />
<glyph unicode="]" horiz-adv-x="557" d="M51 -229h225v1689h-200v66h350v-1821h-375v66z" />
<glyph unicode="^" horiz-adv-x="929" d="M164 1079l295 416h37l270 -416l-29 -20l-266 262l-270 -260z" />
<glyph unicode="_" horiz-adv-x="1024" d="M0 -160h1024v-96h-1024v96z" />
<glyph unicode="`" horiz-adv-x="681" d="M176 1233q0 72 64 72q17 0 34.5 -11.5t40 -38.5t45.5 -57.5t64 -82.5t82 -99l-21 -25q-47 33 -104 70.5t-88.5 58t-61.5 43t-42.5 39t-12.5 31.5z" />
<glyph unicode="a" horiz-adv-x="933" d="M111 217q0 66 32 119.5t81 88t119 60t134 39t137 21.5q19 2 19 24l2 78q-1 31 -11.5 62.5t-31.5 62t-59.5 50.5t-88.5 22q-58 0 -101.5 -14t-66 -33t-38.5 -38t-28.5 -30t-25.5 -8q-14 7 -14 22q0 14 12 35q32 57 111 96q70 34 151 35q77 0 135.5 -23t92.5 -58t55 -83 t28 -91t7 -89v-565h-109l-24 66q-14 -5 -51 -21t-61.5 -25t-69 -17.5t-91.5 -8.5q-103 0 -174 63t-71 160zM264 231q0 -75 43 -125q35 -40 84 -40q12 0 25 2q128 24 215 57v377q-45 -9 -69.5 -14t-69 -17t-71 -24.5t-60 -33.5t-52 -45.5t-32 -59.5t-13.5 -77z" />
<glyph unicode="b" horiz-adv-x="1097" d="M213 0v1552h135l-6 -770q70 79 134 109.5t149 30.5q54 0 106.5 -14t104 -48.5t90 -86t62.5 -133t24 -183.5q0 -115 -33.5 -209t-89.5 -153.5t-126.5 -91.5t-146.5 -32q-56 0 -105 20t-83.5 40t-54.5 20q-64 0 -127 -63q-15 -16 -24 -11.5t-9 23.5zM346 364v-22 q0 -42 2 -82q2 -130 74 -176q75 -49 147 -49q46 0 81 7.5t73.5 33.5t63 70.5t41 124t16.5 188.5q0 395 -246 395q-69 0 -123.5 -25.5t-124.5 -95.5q0 -71 -2 -193t-2 -176z" />
<glyph unicode="c" horiz-adv-x="931" d="M80 487q4 101 45 186t105 139q62 54 140 83q72 27 146 27h10q85 -3 156.5 -43t99 -80.5t9.5 -50.5q-2 -1 -4 -1q-21 0 -91 60q-75 63 -168 63h-8q-117 -2 -190 -101t-82 -288q-1 -22 -1 -43q1 -86 17 -155q20 -85 60.5 -134t92 -73.5t115.5 -26.5h10q162 0 257 158 q13 23 35 12q14 -10 14 -22q0 -4 -2 -9q-17 -36 -45 -71.5t-70.5 -72t-104.5 -58.5q-56 -20 -118 -19h-12q-87 2 -163 37t-134.5 98.5t-90.5 163.5q-28 88 -28 194v27z" />
<glyph unicode="d" horiz-adv-x="1110" d="M86 426q0 110 36 206.5t94.5 160.5t131.5 100.5t148 36.5q95 0 154 -34t126 -114v772l133 -2v-1552l-131 -2q-1 8 0.5 30.5t1.5 43.5q-62 -62 -123 -80.5t-172 -18.5q-54 0 -107.5 14.5t-107 49t-94 85t-65.5 129.5t-25 175zM252 451q0 -91 17.5 -164t45.5 -118.5 t65 -75.5t74 -42t76 -12q81 0 137 16.5t113 63.5q0 6 -2 236.5t-2 381.5q-37 44 -63 67.5t-70 40.5t-102 17q-51 0 -101 -25.5t-92.5 -74t-69 -129.5t-26.5 -182z" />
<glyph unicode="e" horiz-adv-x="966" d="M86 410q0 139 54 257.5t153 190.5t221 72q87 0 158.5 -38.5t115.5 -99t67.5 -131t23.5 -139.5q0 -15 -4 -19.5t-17 -4.5h-608q0 -103 21.5 -184t54.5 -129t77.5 -79t85 -42t82.5 -11q83 0 153.5 38.5t117.5 109.5q16 22 32 10q16 -10 16 -22q0 -6 -5 -13 q-63 -97 -151 -153t-228 -56q-177 0 -298.5 128.5t-121.5 314.5zM248 549h473v13q1 133 -59 218q-62 89 -148 92h-6q-92 0 -170 -83q-80 -86 -90 -240z" />
<glyph unicode="f" horiz-adv-x="634" d="M221 641q0 160 0.5 321.5t1.5 268.5v22q0 75 15.5 133t41.5 91.5t59.5 54.5t69.5 26q21 3 43 3q14 0 30 -1q36 -4 67.5 -15.5t55 -26t34.5 -29.5q19 -25 19 -43.5t-7.5 -25t-17.5 -9.5q-11 -4 -35.5 11t-51 31t-65.5 19q-5 1 -9 1l-69 -23q-24 -18 -36 -54.5t-13.5 -63 t-1.5 -72.5q0 -43 -1 -177t-1 -196q39 0 93 0.5t93 1t42 0.5q6 0 10 -5.5t4 -11.5v-36q0 -6 -4.5 -11.5t-9.5 -5.5l-38 1q-39 0 -92.5 0.5t-91.5 0.5v-821l-133 -2q0 4 -0.5 104.5t-1 239.5t-0.5 299z" />
<glyph unicode="g" horiz-adv-x="1050" d="M63 -183q13 91 145 155q58 28 136 48q-123 23 -184.5 53.5t-61.5 76.5q0 106 211 174q-82 45 -132 113t-50 149q0 136 112 236t263 100q147 0 256 -103q38 78 100 96q42 12 58 -9q5 -7 5 -15q0 -18 -29 -41q-36 -28 -108 -51q86 -101 86 -197q0 -142 -106 -236t-268 -94 q-76 0 -154 35q-40 -13 -72 -40.5t-32 -55.5q0 -27 32.5 -42t108.5 -32q44 -10 167 -25.5t159 -21.5q137 -25 196.5 -79.5t59.5 -160.5q0 -116 -116.5 -192t-355.5 -76q-223 0 -345 87q-82 58 -82 130q0 9 1 18zM198 -217q9 -43 43 -77t98.5 -55.5t149.5 -21.5q74 0 135 8.5 t114.5 28t83.5 55.5t30 86q0 40 -23 71t-57.5 48.5t-86 31.5t-94.5 20.5t-99.5 15t-85.5 14.5q-76 -23 -126.5 -61t-69.5 -79q-14 -29 -14 -59q0 -13 2 -26zM285 598q0 -69 14.5 -121.5t36.5 -82t51.5 -48t55.5 -24t53 -5.5q37 0 72 12t71 40.5t58 88.5t22 144 q0 74 -20.5 130t-53.5 85t-68 43t-71 14t-70.5 -11.5t-70.5 -39t-58 -85.5t-22 -140z" />
<glyph unicode="h" horiz-adv-x="1153" d="M217 -2v1507l105 64q7 2 13 2q15 0 15 -19v-42q-1 -41 -1.5 -105t-1.5 -145.5t-1.5 -162.5t-1 -156t-0.5 -126v-72q50 65 140 118.5t175 53.5q41 0 78 -6.5t76 -25t67 -47t46 -76.5t18 -109v-651h-141v616q0 56 -17.5 98.5t-46 65.5t-58.5 34t-60 11q-163 0 -273 -125 q2 -213 2 -702h-133z" />
<glyph unicode="i" horiz-adv-x="569" d="M205 1335q0 39 28 70t66 31q41 0 68.5 -32t27.5 -73q0 -38 -25.5 -66t-64.5 -28q-46 0 -73 25.5t-27 72.5zM227 -2l2 885l107 39q7 3 13 3q16 0 16 -22v-905h-138z" />
<glyph unicode="j" horiz-adv-x="532" d="M-43 -231q11 7 22 7q25 0 52 -32q39 -45 90 -45q118 0 123 172l-2 995l106 56q29 6 29 -19v-1098q-31 -186 -250 -186q-38 0 -72 13t-55 31.5t-36 40.5q-16 20 -16 37t9 28zM217 1339q0 39 29 69t67 30q43 0 72 -31t29 -72q0 -36 -26 -63t-66 -27q-48 0 -76.5 25 t-28.5 69z" />
<glyph unicode="k" horiz-adv-x="1136" d="M213 -2l2 1536l107 49q14 6 23 6q17 0 17 -22l-8 -1129q49 44 178.5 160t227.5 204.5t104 94.5h97l-369 -315l414 -580h-166l-328 457q-21 28 -49 6q-21 -16 -111 -98l2 -367z" />
<glyph unicode="l" horiz-adv-x="561" d="M227 0v1495l103 76q7 2 13 2q17 0 17 -21v-1552h-133z" />
<glyph unicode="m" horiz-adv-x="1681" d="M219 2v862l100 58q6 1 11 1q20 0 20 -20q0 -72 2 -160q50 66 130.5 120.5t156.5 54.5q213 0 258 -183q54 79 140.5 131t179.5 52q106 0 181 -66.5t75 -183.5v-666h-140v614q0 112 -51.5 162.5t-122.5 50.5q-136 0 -252 -141q6 -34 6 -72q0 -71 -1 -338t-1 -276h-137v614 q0 112 -47.5 162.5t-126.5 50.5q-72 0 -131 -35.5t-117 -107.5v-684h-133z" />
<glyph unicode="n" horiz-adv-x="1144" d="M219 0v872l105 50q5 1 10 1q18 0 18 -20v-160q51 70 132 121t167 51q41 0 78 -6.5t76 -25t67 -47t46 -76.5t18 -109v-649h-141v610q0 56 -18.5 99.5t-47 67t-59 35t-58.5 11.5q-145 0 -258 -143q2 -211 2 -682h-137z" />
<glyph unicode="o" horiz-adv-x="1064" d="M86 438q0 115 42.5 211.5t108.5 156t142 92t149 32.5q85 0 165.5 -32.5t144.5 -91t102.5 -150t38.5 -201.5q0 -117 -38 -211.5t-102 -154t-144 -91t-167 -31.5q-121 0 -224 68.5t-160.5 176.5t-57.5 226zM258 442q0 -103 20 -182t49 -124t67.5 -73.5t69.5 -37.5t60 -9 q30 0 58 6t62 21.5t61.5 46.5t51.5 76.5t37 117t13 162.5q0 104 -18.5 184t-46.5 125.5t-66.5 74t-72 38t-68.5 9.5q-39 0 -73.5 -9.5t-73 -38.5t-66.5 -75t-46 -126.5t-18 -185.5z" />
<glyph unicode="p" horiz-adv-x="1105" d="M217 -418v1336h135v-154q139 151 271 151q74 0 142.5 -25t126.5 -74.5t93 -134.5t35 -194q0 -125 -35 -227t-91 -162.5t-121 -92.5t-130 -32q-193 0 -291 136v-527h-135zM352 164q103 -127 246 -127q35 0 67 8.5t68.5 35.5t63 69.5t44 117.5t17.5 174q0 404 -256 404 q-149 0 -250 -156v-526z" />
<glyph unicode="q" horiz-adv-x="1048" d="M86 426q0 110 37.5 205t98 156.5t134 96t148.5 34.5q37 0 72 -10t71 -27t49 -21q12 -4 32.5 -12t55.5 -18t101 -27v-1227l-131 51q0 51 0.5 181t0.5 212t-1 91q-71 -70 -130 -102t-137 -32q-54 0 -108 14t-107.5 48t-94 84t-66 128.5t-25.5 174.5zM254 430 q0 -99 17.5 -172t43 -112.5t62.5 -63t66.5 -29.5t64.5 -6q70 0 124 25t118 80q4 110 4 520q0 22 -13 67q-24 52 -78.5 84.5t-138.5 32.5q-41 0 -77 -11t-72.5 -41t-62.5 -76t-42 -122.5t-16 -175.5z" />
<glyph unicode="r" horiz-adv-x="757" d="M215 0v879l104 47q5 3 10 3q5 1 9 -3q8 -6 8 -17l4 -114q44 92 176 122q49 12 93 12q48 0 89 -14q52 -18 52 -47q0 -6 -2 -12q-3 -11 -13 -22q-8 -9 -25 -10t-38 4t-48 10t-55.5 8.5t-59.5 -2.5t-59.5 -20t-57 -46.5t-50.5 -81.5q4 -667 4 -696h-141z" />
<glyph unicode="s" horiz-adv-x="837" d="M71 178v5q0 23 25 24q8 0 31 -25.5t51.5 -57.5t81 -63.5t111.5 -40.5q19 -3 36 -3q57 0 100 28q55 36 66 96q6 28 6 52q0 31 -10 53q-17 40 -65 76q-19 14 -91 52t-132 77q-138 90 -138 228q0 32 7 66q10 57 42 96.5t74 56.5q41 16 90 24q24 4 47 4q25 0 48 -4 q129 -14 190 -99q28 -38 28 -66q0 -6 -2 -12q-4 -14 -18 -12q-12 4 -25 21.5t-26 36.5t-50.5 39t-94.5 30q-22 4 -41 4q-51 0 -89 -24q-53 -34 -63 -84q-3 -14 -3 -27q0 -37 23 -65q31 -38 97 -76q190 -125 213 -142q69 -50 104 -126q26 -56 26 -112q0 -19 -3 -38 q-12 -70 -68.5 -123t-132.5 -75q-54 -16 -106 -16q-22 0 -43 3q-131 17 -229 113q-62 61 -67 106z" />
<glyph unicode="t" horiz-adv-x="669" d="M51 844q0 12 64 28q73 13 115 94t57 203q3 25 30 25q14 0 17.5 -5t1.5 -18l2 -297h162v-55h-162v-626q6 -74 31 -105.5t82 -32.5q23 0 48 -1.5t52.5 8t42.5 30.5q8 11 22 2q6 -4 6 -16q0 -5 -1 -12q-4 -38 -76 -69q-66 -28 -133 -28h-13q-83 3 -143 45.5t-63 128.5l2 676 q-113 4 -119 4q-9 -2 -17 4.5t-8 16.5z" />
<glyph unicode="u" horiz-adv-x="1081" d="M176 233v617l133 70q6 3 11 3q4 0 7 -2q7 -5 7 -16q0 -3 -6 -284t-6 -316q0 -101 49.5 -167t140.5 -66q25 0 47.5 2.5t38 5t39 9.5t34.5 11t41 16t44 17l-2 782h139v-927l-96 2q-41 -3 -41 22q0 3 2.5 25t1.5 53q-38 -27 -59.5 -40t-62.5 -34.5t-85 -31t-92 -9.5 q-36 0 -73 7.5t-76 26.5t-68.5 47t-48.5 74t-19 103z" />
<glyph unicode="v" horiz-adv-x="1015" d="M111 889h149l281 -699q4 -12 12.5 -12.5t11.5 10.5l266 705h72l-362 -918q-7 -14 -11 -14h-30q-12 0 -17 14z" />
<glyph unicode="w" horiz-adv-x="1503" d="M127 895h141q246 -670 250 -686q3 -12 11.5 -12t13.5 12l231 629h49q224 -623 228 -637q3 -10 10 -9.5t10 9.5l248 694h70l-345 -911q-4 -17 -12 -17h-28q-6 0 -13 17q-225 618 -227 626q-3 9 -10 9.5t-11 -7.5t-59.5 -163t-108.5 -306l-53 -151q-7 -23 -16 -23h-27 q-11 0 -16 15z" />
<glyph unicode="x" horiz-adv-x="1003" d="M80 0q13 15 356 426q0 1 1 2q7 11 0 21l-5 6q-12 12 -348 432h147q11 0 73.5 -78t129 -167t70.5 -93q8 -9 19.5 -8.5t17.5 8.5q2 3 27.5 37l61.5 82t71.5 95t63.5 84t30 40h63q-9 -11 -150 -189.5t-143 -181.5q-18 -18 0 -39l373 -477h-158l-286 385q-9 12 -19 14t-16 -6 q-11 -16 -152 -200.5t-147 -192.5h-80z" />
<glyph unicode="y" horiz-adv-x="1017" d="M100 -340q0 9 8 14q7 5 20.5 7.5t32.5 5t40.5 6t47 11.5t50 19.5t50.5 33t48 50.5q9 13 24 42.5t38 76.5t37 74l-390 883h154q283 -677 289 -693q4 -12 12.5 -12.5t11.5 10.5l252 695h68q-259 -705 -334 -883q-57 -138 -100 -201q-40 -59 -87.5 -100.5t-89 -59.5 t-78.5 -25q-19 -3 -35 -3q-14 0 -26 3q-24 6 -32 19q-11 17 -11 27z" />
<glyph unicode="z" horiz-adv-x="819" d="M41 16q0 9 4 15q5 7 274 390t275 392q2 3 3.5 7t1.5 8t-2.5 7t-8.5 3h-531q1 3 -1 14.5t-2.5 18.5t3.5 10h691q24 0 24 -21q0 -25 -12 -39q-7 -8 -267.5 -369t-265.5 -366t-7 -9.5t-0.5 -7.5t7.5 -3h553v-68l-712 2q-27 0 -27 16z" />
<glyph unicode="{" horiz-adv-x="614" d="M33 555q0 31 24 31q7 0 21 -2t20 -2q178 0 170 180q-2 50 -28.5 210t-28.5 224q-5 132 73 224t199 98q33 2 95 2q16 0 16 -31q0 -27 -16 -27q-5 0 -29 1t-37 1q-66 -2 -117.5 -40t-48.5 -93q6 -96 29 -228.5t28 -180.5q9 -89 -22 -173.5t-84 -136t-109 -53.5q-6 0 -6 -6 t6 -6q86 -3 148 -97t55 -221q-4 -71 -21 -217.5t-20 -224.5q-3 -65 37.5 -110.5t104.5 -51.5q19 -2 31.5 -1.5t27 2t16.5 1.5q17 0 17 -24q0 -29 -19 -29q-78 0 -119 2q-114 7 -178 90.5t-61 198.5q4 117 27 272t26 187q10 99 -26 150.5t-136 51.5q-6 0 -20 -3t-21 -3 q-9 0 -16.5 10t-7.5 25z" />
<glyph unicode="|" horiz-adv-x="512" d="M201 -403v2005h110v-2005h-110z" />
<glyph unicode="}" horiz-adv-x="614" d="M33 1489q0 31 16 31q61 0 94 -2q122 -6 199.5 -98t73.5 -224q-2 -64 -29 -224t-29 -210q-8 -180 170 -180q6 0 20 2t21 2q25 0 25 -31q0 -14 -8 -24.5t-17 -10.5q-7 0 -21 3t-20 3q-100 0 -135.5 -51.5t-25.5 -150.5q3 -32 26 -187t27 -272q3 -115 -61.5 -198.5 t-178.5 -90.5q-41 -2 -119 -2q-18 0 -18 29q0 24 16 24q2 0 16.5 -1.5t27 -2t32.5 1.5q64 6 104 51.5t37 110.5q-3 78 -19.5 224.5t-20.5 217.5q-7 127 54.5 221t147.5 97q6 0 6 6t-6 6q-56 2 -109 53.5t-84 136t-22 173.5q5 49 28.5 181t29.5 228q3 55 -48.5 93t-117.5 40 q-13 0 -37 -1t-29 -1q-16 0 -16 27z" />
<glyph unicode="~" horiz-adv-x="1015" d="M63 852q50 130 116.5 199t168.5 69q46 0 90.5 -22t80.5 -54t71 -63.5t73.5 -53.5t75.5 -22q69 0 103 27.5t73 116.5l43 -19q-44 -127 -102 -186.5t-158 -59.5q-48 0 -102 33t-94.5 72.5t-89 72.5t-86.5 33q-79 0 -125.5 -34.5t-91.5 -131.5z" />
<glyph unicode="&#xa1;" horiz-adv-x="374" d="M100 -307l39 985q0 11 19.5 16.5t38.5 5.5q18 0 43.5 -7t25.5 -15l29 -987q0 -47 -28 -87t-70 -40q-43 0 -70 35.5t-27 93.5zM104 1034q0 40 27 69.5t68 29.5t68.5 -28t27.5 -69q0 -43 -26 -71.5t-68 -28.5q-45 0 -71 28t-26 70z" />
<glyph unicode="&#xa2;" d="M84 -356q39 74 123.5 238.5t122.5 232.5q-2 2 -25.5 16t-42.5 26.5t-46.5 39t-47.5 55t-36.5 71.5t-20.5 91q-10 121 22 212.5t105 186.5q66 83 169.5 145t210.5 62q25 0 47 -4t31 -7t33.5 -14.5t30.5 -13.5q20 43 76.5 158t105 214t51.5 105q6 11 11 13t16 -3 q5 -2 12 -6t12 -6q27 -17 15 -35q-9 -14 -104.5 -202t-135.5 -269q74 -74 82 -168q4 -47 -25 -75.5t-65 -28.5q-60 0 -96 55q-23 -48 -140 -283t-147 -298q37 -9 76 -9q78 0 164.5 60.5t150.5 140.5q11 14 25 6q4 -4 16 -10q14 -14 2 -31q-61 -88 -169.5 -155.5 t-200.5 -67.5q-49 0 -91 12q-13 -30 -118 -248t-115 -239q-4 -9 -15.5 -12.5t-19.5 -1.5q-19 5 -39 20q-17 10 -10 27zM270 332q4 -56 31 -94.5t64 -53.5q58 135 202.5 419.5t161.5 334.5q-39 29 -92 29q-82 0 -145 -59.5t-127 -172.5q-54 -96 -79 -204t-16 -199z" />
<glyph unicode="&#xa3;" horiz-adv-x="1429" d="M53 143q0 88 75 148.5t187 60.5q67 0 140 -26q-7 71 -49 366l-15 96h-170v58h166q-4 54 -4 82q0 247 135.5 399t366.5 152q146 0 237.5 -60t91.5 -147q0 -54 -31.5 -77.5t-56.5 -23.5q-19 0 -34.5 7.5t-25 17t-18 27t-12 27t-8.5 27t-6 19.5q-42 131 -188 131 q-41 0 -81 -9t-82 -32.5t-73.5 -59.5t-51.5 -96.5t-20 -137.5q0 -28 15 -170l8 -74h272v-62h-264q9 -73 26 -174t27.5 -185t14.5 -173l75 -45q69 -41 111 -62.5t103 -40t120 -18.5q94 0 178 44.5t140 123.5l37 -31l-35 -45q-184 -231 -381 -231q-39 0 -71 6t-94 34.5 t-136 82.5l-66 49q-22 -72 -96.5 -121t-187.5 -49q-122 0 -195.5 52.5t-73.5 139.5zM162 178q0 -65 53 -127.5t129 -62.5q60 0 96.5 42t36.5 111q0 50 -8 82q-28 39 -71.5 62.5t-90.5 23.5q-63 0 -104 -37.5t-41 -93.5z" />
<glyph unicode="&#xa4;" horiz-adv-x="1128" d="M133 453l141 141q-75 101 -75 225q0 129 77 225l-143 144l64 63l143 -143q100 80 227 80t224 -78l141 141l63 -63l-139 -141q80 -100 80 -228q0 -124 -80 -227l139 -139l-63 -64l-139 139q-99 -77 -226 -77t-229 79l-141 -141zM289 819q0 -115 81.5 -196.5t196.5 -81.5 q116 0 197.5 81.5t81.5 196.5t-82 197t-197 82t-196.5 -81.5t-81.5 -197.5z" />
<glyph unicode="&#xa5;" horiz-adv-x="1546" d="M203 1493h211l415 -745q91 148 245.5 421.5t180.5 323.5h99q-19 -23 -208.5 -340.5t-277.5 -474.5v-98h396v-60h-396v-186h396v-60h-396v-274h-176v274h-403v60h403v186h-403v60h403v65z" />
<glyph unicode="&#xa6;" horiz-adv-x="1024" d="M457 -383v920h110v-920h-110zM457 723v879h110v-879h-110z" />
<glyph unicode="&#xa7;" horiz-adv-x="1085" d="M143 666q0 65 32.5 115.5t81 77.5t96 40t85.5 12q-40 32 -63.5 51.5t-57.5 53.5t-52 62t-32 66t-14 77q0 136 94 218.5t230 82.5q178 0 256 -95q44 -54 35 -105q-5 -33 -29 -33q-37 0 -78 77q0 50 -49.5 77t-128.5 27q-92 0 -165 -54t-73 -126q0 -44 15 -80t44 -64 t53.5 -45.5t61.5 -39.5q4 -2 6 -3.5t5 -3t6 -3.5q25 -16 80 -48.5t87.5 -53t73 -49.5t66.5 -54q149 -144 149 -285q0 -68 -27 -122t-68 -84t-81.5 -45t-74.5 -15h-62q128 -73 190 -173t62 -206q0 -81 -50.5 -148.5t-123 -103t-145.5 -35.5q-227 0 -308 97q-43 51 -28 103 q11 36 41 38q43 4 78 -72q1 -1 1 -2q0 -48 49.5 -79t131.5 -31q105 0 184.5 57.5t79.5 142.5q0 137 -189 248q-191 113 -323 221q-62 51 -107 132t-45 182zM231 713q0 -50 20.5 -88.5t61.5 -81.5q22 -23 77.5 -64t128 -90t77.5 -53q72 -5 131 8.5t100 55t41 106.5 q0 23 -5 44t-17.5 40.5t-22 33.5t-30 32t-29 25.5t-31.5 25t-26 20.5q-32 25 -107.5 75t-93.5 64q-58 13 -121.5 -2.5t-108.5 -56t-45 -94.5z" />
<glyph unicode="&#xa8;" horiz-adv-x="681" d="M82 1188q0 42 26.5 67t65.5 25t65.5 -26.5t26.5 -65.5q0 -42 -25 -67t-67 -25q-38 0 -65 27.5t-27 64.5zM416 1188q0 42 26.5 67t65.5 25t65.5 -26.5t26.5 -65.5q0 -42 -25 -67t-67 -25q-38 0 -65 27.5t-27 64.5z" />
<glyph unicode="&#xa9;" horiz-adv-x="1597" d="M109 758q0 135 52.5 257.5t141 211.5t211.5 141.5t258 52.5q134 0 257 -52.5t212 -141.5t142 -212t53 -257t-53 -257t-142 -212t-212 -142t-257 -53q-180 0 -333 89.5t-241.5 242t-88.5 332.5zM186 758q0 -158 78.5 -293t213.5 -214t294 -79q119 0 227.5 46.5t187 125 t125 187t46.5 227.5q0 158 -79 293t-214 213.5t-293 78.5q-159 0 -294 -78.5t-213.5 -213.5t-78.5 -293zM397 741q0 91 35 169.5t91 128.5t122.5 78t132.5 28q162 0 305 -215q1 -3 1.5 -5t-2.5 -4t-5 -3t-6.5 -2.5t-6.5 -2l-6 -1.5t-5 -1q-11 -6 -21 9q-43 67 -110 120.5 t-136 53.5q-44 0 -84 -16t-78.5 -52.5t-61.5 -109t-23 -173.5q0 -76 17.5 -134t43.5 -92t62 -55t68.5 -28.5t66.5 -7.5q98 0 157 43t109 139q10 17 24 10q9 -4 23 -14q10 -8 2 -16q-39 -102 -125 -164t-194 -62q-76 0 -146 24t-126.5 69t-90 119t-33.5 167z" />
<glyph unicode="&#xaa;" horiz-adv-x="761" d="M145 1036q0 44 28 80t74.5 57.5t95.5 34t101 17.5q7 3 7 8v35.5t-1.5 31.5t-5.5 31.5t-11 22t-18.5 17.5t-27.5 5t-30.5 -3.5t-22.5 -7.5t-20 -10.5t-15 -8.5q-76 -39 -117 -22q-26 11 -9 34q29 41 146 53q37 4 80 4q66 0 101 -24.5t35 -61.5q0 -25 1 -154.5t1 -140.5 l12 -108q-68 0 -92 65q-74 -69 -162 -69q-63 0 -106.5 30.5t-43.5 83.5zM248 1053q0 -36 22 -58t60 -22q34 0 60 13.5t59 41.5v162q-33 -5 -55.5 -10t-52.5 -15.5t-48.5 -24t-31.5 -36t-13 -51.5z" />
<glyph unicode="&#xac;" horiz-adv-x="1212" d="M125 813v105h975v-453h-113v348h-862z" />
<glyph unicode="&#xad;" horiz-adv-x="468" d="M45 414v82q0 10 7 17t18 7h168q34 0 71.5 0.5t62 1t25.5 0.5q29 -3 29 -22v-78q0 -13 -9.5 -22t-19.5 -9q-4 0 -23 1.5t-55 3t-81 1.5h-164q-29 0 -29 17z" />
<glyph unicode="&#xae;" horiz-adv-x="1597" d="M109 758q0 135 52.5 257.5t141 211.5t211.5 141.5t258 52.5q134 0 257 -52.5t212 -141.5t142 -212t53 -257t-53 -257t-142 -212t-212 -142t-257 -53q-180 0 -333 89.5t-241.5 242t-88.5 332.5zM186 758q0 -158 78.5 -293t213.5 -214t294 -79q119 0 227.5 46.5t187 125 t125 187t46.5 227.5q0 158 -79 293t-214 213.5t-293 78.5q-159 0 -294 -78.5t-213.5 -213.5t-78.5 -293zM438 414q0 19 25 22q42 4 57 8q23 4 23 43v545q0 34 -13.5 42.5t-58.5 8.5q-29 0 -29 23q0 24 31 24q4 0 18.5 -0.5t42.5 -1t66 -0.5q44 0 107.5 2.5t72.5 2.5 q136 0 212.5 -58.5t76.5 -148.5q0 -73 -56.5 -120.5t-133.5 -64.5q125 -224 153 -262q14 -19 39.5 -31t48.5 -14q21 -4 21 -20q0 -17 -23 -17h-155q-7 0 -9 4l-190 334l-115 -2q0 -57 -1 -144t-1 -97q0 -33 28.5 -45.5t63.5 -12.5q27 0 27 -16q0 -10 -7 -16.5t-18 -6.5h-100 q-23 0 -64.5 -1t-73.5 -2l-32 -1q-33 0 -33 23zM649 778h66q68 0 82 2q60 5 103.5 42.5t43.5 103.5q0 164 -176 164q-26 0 -41.5 -1t-36 -6t-31 -17.5t-10.5 -31.5v-256z" />
<glyph unicode="&#xb0;" horiz-adv-x="679" d="M82 1178q0 106 76 182t182 76t182 -76t76 -182t-76 -182t-182 -76t-182 76t-76 182zM166 1178q0 -72 51 -123t123 -51t123 51t51 123t-51 123t-123 51t-123 -51t-51 -123z" />
<glyph unicode="&#xb1;" horiz-adv-x="1212" d="M125 35v104h975v-104h-975zM125 670v104h440v426h107v-426h428v-104h-428v-424h-107v424h-440z" />
<glyph unicode="&#xb2;" horiz-adv-x="747" d="M90 682v37v2q34 49 81 102t77 82.5t90 86t74 69.5q106 98 106 199q0 69 -39.5 108t-97.5 39q-68 0 -114 -24t-46 -56q0 -19 17.5 -42t17.5 -44q0 -32 -17.5 -47.5t-45.5 -15.5t-53 19.5t-25 53.5q0 78 79 137.5t183 59.5q113 0 183.5 -49.5t70.5 -143.5q0 -35 -9.5 -65 t-21.5 -51t-38 -46t-43 -38.5t-54 -40.5q-201 -145 -281 -248q-4 -4 -4 -6t2 -2h271q15 0 27.5 2t24.5 7t20 8.5t18 13.5t14.5 14t13.5 17.5t11.5 16t11.5 18.5t10 17q4 9 14 9q7 0 14 -4.5t7 -10.5v-4l-51 -182q-4 -4 -6 -4h-486z" />
<glyph unicode="&#xb3;" horiz-adv-x="741" d="M104 823q0 32 21 51t47 19q68 0 68 -53q0 -20 -9.5 -39.5t-9.5 -26.5q0 -29 31 -50.5t106 -21.5q72 0 125.5 44.5t53.5 136.5q0 93 -54 140.5t-129 47.5q-17 0 -39.5 -5t-29.5 -5q-31 0 -31 29q0 13 9 20.5t22 7.5q10 0 29 -4t38 -4q70 0 114 41t44 125q0 74 -41 110.5 t-100 36.5q-52 0 -84.5 -20t-32.5 -49q0 -9 6 -25.5t6 -30.5q0 -57 -61 -57q-28 0 -45 15t-17 44q0 60 71 109t159 49q107 0 178.5 -45t71.5 -131q0 -66 -48.5 -114t-132.5 -76q209 -39 209 -201q0 -94 -86 -158.5t-203 -64.5q-69 0 -122 16.5t-80.5 42t-40.5 50t-13 46.5z " />
<glyph unicode="&#xb4;" horiz-adv-x="681" d="M182 1016q41 47 82 99t64 82.5t46 57.5t40.5 38.5t34.5 11.5q63 0 63 -72q0 -15 -12.5 -31.5t-42.5 -39t-61.5 -43t-88.5 -58t-104 -70.5z" />
<glyph unicode="&#xb6;" horiz-adv-x="1097" d="M141 1247q0 83 23.5 143.5t59.5 94t89.5 52.5t102.5 23.5t110 2.5q39 -1 162 0.5t236 3.5t114 2q17 0 17 -17v-43q0 -10 -4 -14t-15 -4l-114 4v-449t0.5 -479.5t1 -421t0.5 -318v-126.5q0 -14 -3.5 -18.5t-13.5 -4.5q-11 0 -25.5 1.5t-27.5 1.5q-9 0 -12.5 4.5t-3.5 19.5 v1790h-193q4 -1770 4 -1790q0 -18 -3.5 -23.5t-16.5 -5.5h-47q-12 0 -15.5 5t-3.5 24v95t0.5 228.5t1 294.5t0.5 323.5v285.5h-106q-318 0 -318 315z" />
<glyph unicode="&#xb7;" horiz-adv-x="481" d="M123 639q0 54 32 88.5t85 34.5q55 0 86.5 -33.5t31.5 -83.5q0 -49 -32 -84t-84 -35q-50 0 -84.5 33.5t-34.5 79.5z" />
<glyph unicode="&#xb8;" horiz-adv-x="681" d="M137 -324l35 35q58 -39 145 -39q29 0 56.5 20.5t27.5 47.5q0 80 -122 80l53 180h67l-45 -129q69 -1 112.5 -35t43.5 -80q0 -54 -62.5 -93.5t-134.5 -39.5q-55 0 -92 11t-84 42z" />
<glyph unicode="&#xb9;" horiz-adv-x="708" d="M201 1356q0 12 10 12q31 6 53.5 14t34 14.5t32.5 21t38 24.5q4 2 12 2q14 0 14 -14v-3q-6 -35 -4 -729h-90v566q0 48 -5.5 63.5t-23.5 11.5q-12 -2 -55 -2q-16 0 -16 19z" />
<glyph unicode="&#xba;" horiz-adv-x="763" d="M115 1176q0 81 42.5 143.5t101.5 91.5t118 29q106 0 185 -69.5t79 -186.5q0 -124 -78.5 -194t-187.5 -70q-108 0 -184 78.5t-76 177.5zM225 1178q0 -66 16 -113.5t41.5 -69.5t48 -31.5t42.5 -9.5t38.5 4t41 18.5t39 38t27.5 66t11 99.5q0 67 -15 114t-40 68.5t-48 30 t-48 8.5q-21 0 -40.5 -4.5t-41 -19.5t-37 -38.5t-25.5 -64.5t-10 -96z" />
<glyph unicode="&#xbc;" horiz-adv-x="1384" d="M186 1464q0 13 11 13q31 6 52.5 13t31.5 13t30 18.5t37 22.5q4 4 12 4q15 0 15 -14v-2q-6 -34 -6 -277q0 -32 2 -175.5t2 -215.5l-94 -2q0 18 1 250t1 256q0 28 -0.5 39t-2.5 22.5t-6.5 14.5t-13.5 4t-29 -0.5t-26 -1.5q-17 0 -17 18zM262 -100l819 1652l74 -36 l-821 -1651zM735 166v24q0 15 10 25q26 30 49 61.5t49 69t101 146.5t168 241q2 2 6 2h37q6 0 6 -4v-733l-94 6v150q-236 -2 -315 -2q-17 0 -17 14zM788 195l279 -2l-4 401z" />
<glyph unicode="&#xbd;" horiz-adv-x="1384" d="M186 1464q0 13 11 13q31 6 52.5 13t31.5 13t30 18.5t37 22.5q4 4 12 4q15 0 15 -14v-2q-6 -34 -6 -277q0 -32 2 -175.5t2 -215.5l-94 -2q0 18 1 250t1 256q0 28 -0.5 39t-2.5 22.5t-6.5 14.5t-13.5 4t-29 -0.5t-26 -1.5q-17 0 -17 18zM201 -100l819 1652l74 -36 l-822 -1651zM745 2v2q34 49 81 102t77 82.5t90 86t74 69.5q107 99 107 199q0 69 -40 108t-98 39q-112 0 -159 -80l-31 19q2 3 12.5 19t22 27.5t31 25.5t50.5 22t70 8q113 0 183.5 -49t70.5 -143q0 -35 -9.5 -65t-21.5 -51t-38 -46t-43.5 -39t-53.5 -41q-199 -143 -280 -248 q-4 -4 -4 -6t2 -2h432v-80q-2 -2 -518 -2q-1 0 -7 6v37z" />
<glyph unicode="&#xbe;" horiz-adv-x="1384" d="M51 908q2 12 12 16q9 3 14.5 -5.5t17 -24.5t32 -33.5t70 -33.5t120.5 -24q70 -7 124.5 40t54.5 140t-54 140.5t-129 47.5q-17 0 -39.5 -5t-29.5 -5q-31 0 -31 29q0 13 9 21t22 8q10 0 29 -4.5t38 -4.5q70 0 114 41t44 125q0 74 -41 111t-100 37q-51 0 -95.5 -20t-68 -44 t-41 -42.5t-23.5 -16.5q-38 12 -1 55q42 50 125 82q58 23 106 21q110 -5 180 -48.5t70 -128.5q0 -66 -48.5 -114t-132.5 -76q209 -39 209 -201q0 -94 -86 -159.5t-203 -65.5q-131 0 -219 72q-49 40 -49 70zM262 -100l819 1652l74 -36l-821 -1651zM735 166v24q0 15 10 25 q26 30 49 61.5t49 69t101 146.5t168 241q2 2 6 2h37q6 0 6 -4v-733l-94 6v150q-236 -2 -315 -2q-17 0 -17 14zM788 195l279 -2l-4 401z" />
<glyph unicode="&#xbf;" horiz-adv-x="825" d="M141 -45q0 82 25 151.5t64.5 115.5t89.5 78t98 46t92 14q-1 0 0 39.5t2.5 104t1.5 106.5q0 27 9 36t30 9q20 0 29 -9t10 -36q6 -166 6 -360q0 -15 -8.5 -25t-20.5 -10q-120 0 -216.5 -83.5t-96.5 -209.5q0 -106 74 -182t180 -84q56 -4 101 17t69.5 51.5t41.5 61t28 47 t20 7.5q16 -16 17 -50t-15.5 -73t-46 -74.5t-80 -58.5t-110.5 -22q-41 1 -90 14.5t-103.5 45t-98.5 75t-73 111t-29 147.5zM424 973q0 49 32.5 84t84.5 35q51 0 84.5 -32.5t33.5 -80.5q0 -54 -31.5 -88.5t-84.5 -34.5q-55 0 -87 34t-32 83z" />
<glyph unicode="&#xc0;" horiz-adv-x="1572" d="M160 -3q0 1 5 2l-1 1l530 1450l140 63q26 0 32 -22l525 -1491h-189l-178 537q-95 0 -227 -0.5t-226.5 -1t-97.5 -0.5q-37 0 -43 -21q-7 -15 -30.5 -78.5t-66.5 -189.5t-81 -250q-92 -1 -92 1zM470.5 607q4.5 -9 14.5 -9h510l-264 752q-251 -704 -258 -719t-2.5 -24z M627 1765q0 72 63 72q17 0 34.5 -11.5t40 -38.5t45.5 -57.5t64 -82.5t82 -99l-20 -24q-47 33 -104 70t-88.5 58t-61.5 43t-42.5 38.5t-12.5 31.5z" />
<glyph unicode="&#xc1;" horiz-adv-x="1572" d="M160 -3q0 1 5 2l-1 1l530 1450l140 63q26 0 32 -22l525 -1491h-189l-178 537q-95 0 -227 -0.5t-226.5 -1t-97.5 -0.5q-37 0 -43 -21q-7 -15 -30.5 -78.5t-66.5 -189.5t-81 -250q-92 -1 -92 1zM470.5 607q4.5 -9 14.5 -9h510l-264 752q-251 -704 -258 -719t-2.5 -24z M612 1569q41 47 82 99t64 82.5t46 57.5t40.5 38.5t34.5 11.5q63 0 63 -72q0 -15 -12.5 -31.5t-42.5 -39t-61.5 -43t-88.5 -58t-104 -70.5z" />
<glyph unicode="&#xc2;" horiz-adv-x="1572" d="M160 -3q0 1 5 2l-1 1l530 1450l140 63q26 0 32 -22l525 -1491h-189l-178 537q-95 0 -227 -0.5t-226.5 -1t-97.5 -0.5q-37 0 -43 -21q-7 -15 -30.5 -78.5t-66.5 -189.5t-81 -250q-92 -1 -92 1zM470.5 607q4.5 -9 14.5 -9h510l-264 752q-251 -704 -258 -719t-2.5 -24z M512 1468l272 355h37l252 -355l-33 -14l-237 207l-254 -205z" />
<glyph unicode="&#xc3;" horiz-adv-x="1572" d="M160 -3q0 1 5 2l-1 1l530 1450l140 63q26 0 32 -22l525 -1491h-189l-178 537q-95 0 -227 -0.5t-226.5 -1t-97.5 -0.5q-37 0 -43 -21q-7 -15 -30.5 -78.5t-66.5 -189.5t-81 -250q-92 -1 -92 1zM438 1597q50 100 97.5 151.5t115.5 51.5q45 0 90 -19t75 -41.5t70 -41.5 t77 -19q45 0 71.5 17t55.5 73l20 -8q-33 -84 -83 -134t-114 -50q-45 0 -89 19t-73 42.5t-63.5 42.5t-64.5 19q-52 0 -86 -22.5t-78 -92.5zM470.5 607q4.5 -9 14.5 -9h510l-264 752q-251 -704 -258 -719t-2.5 -24z" />
<glyph unicode="&#xc4;" horiz-adv-x="1572" d="M160 -3q0 1 5 2l-1 1l530 1450l140 63q26 0 32 -22l525 -1491h-189l-178 537q-95 0 -227 -0.5t-226.5 -1t-97.5 -0.5q-37 0 -43 -21q-7 -15 -30.5 -78.5t-66.5 -189.5t-81 -250q-92 -1 -92 1zM470.5 607q4.5 -9 14.5 -9h510l-264 752q-251 -704 -258 -719t-2.5 -24z M532 1679q0 42 27 67.5t66 25.5t65.5 -27t26.5 -66q0 -42 -25 -67t-67 -25q-38 0 -65.5 27.5t-27.5 64.5zM866 1679q0 42 26.5 67.5t65.5 25.5t66 -27t27 -66q0 -42 -25.5 -67t-67.5 -25q-38 0 -65 27.5t-27 64.5z" />
<glyph unicode="&#xc5;" horiz-adv-x="1572" d="M160 -3q0 1 5 2l-1 1l530 1450l140 63q26 0 32 -22l525 -1491h-189l-178 537q-95 0 -227 -0.5t-226.5 -1t-97.5 -0.5q-37 0 -43 -21q-7 -15 -30.5 -78.5t-66.5 -189.5t-81 -250q-92 -1 -92 1zM470.5 607q4.5 -9 14.5 -9h510l-264 752q-251 -704 -258 -719t-2.5 -24z M588 1731q0 75 54.5 129.5t129.5 54.5t129.5 -54.5t54.5 -129.5q0 -76 -54.5 -130.5t-129.5 -54.5t-129.5 55t-54.5 130zM647 1731q0 -51 37 -88t88 -37t88 37t37 88t-37 87.5t-88 36.5t-88 -36.5t-37 -87.5z" />
<glyph unicode="&#xc6;" horiz-adv-x="2142" d="M33 20q0 25 24 25q135 0 244 172l713 1094l61 100q-10 31 -65 31h-70q-20 0 -20 24q0 11 0.5 15.5t6 9t17.5 4.5h201h141h150.5t141 0.5t113.5 1t82.5 0.5h34.5q14 0 46 2t38 2q21 0 33 -20q3 -4 29.5 -72.5t54 -139t29.5 -75.5q12 -28 2 -31q-3 -1 -10 -7t-9 -7 q-18 -12 -24 -2q-42 60 -72 97t-74.5 78t-98 67t-120.5 41q-39 10 -192 10q-36 0 -76 -6q-39 -8 -64.5 -37.5t-25.5 -67.5q0 -24 -2 -260t-2 -240q0 -15 3 -20.5t13 -5.5h172q108 0 170.5 49.5t89.5 151.5q3 12 19 12q8 0 32 -4q12 0 9 -17q0 -143 2 -204q0 -207 4 -256 q0 -19 -12 -21q-5 -1 -16 -2t-17 -2q-20 0 -23 14q-20 110 -83 159.5t-173 51.5h-164q-22 0 -22 -12v-533q0 -59 39 -96t100 -37h150q50 0 125 17q99 27 214 118t156 168q6 11 23 11q5 0 12 -4.5t8 -4.5q3 0 5 -6.5t1 -13.5q-1 -5 -53 -148.5t-53 -148.5q-8 -41 -35 -41 q-287 -4 -772 -4q-21 0 -157.5 -2t-143.5 -2q-25 0 -25 24q0 12 7 19.5t18 7.5q48 6 100 6q50 4 79 36.5t32 78.5q2 29 2 369q-85 0 -203 -0.5t-202.5 -1t-88.5 -0.5q-34 0 -49 -21q-152 -239 -162 -258q-47 -69 -43.5 -115.5t41.5 -69.5t103 -24q22 0 22 -22q0 -25 -24 -25 q-2 0 -11 0.5t-26 1t-41.5 1t-66.5 0.5t-93 -1q-68 -1 -113.5 -2t-63 -1.5t-26.5 -0.5q-18 0 -22 4.5t-4 17.5zM643 631q-17 -33 2 -33h461v752q-80 -126 -189.5 -294.5t-181.5 -279t-92 -145.5z" />
<glyph unicode="&#xc7;" horiz-adv-x="1423" d="M88 717q0 147 41.5 278t111 226t158.5 164t185.5 103t189.5 32q170 -3 280.5 -61t241.5 -220q5 -8 2.5 -15t-10.5 -10q-8 -4 -12 -8q-3 -4 -15 -1.5t-16 9.5q-70 119 -186.5 184.5t-270.5 59.5q-48 -2 -93 -12.5t-93.5 -35t-90 -61t-79 -95t-64 -132.5t-42 -176.5 t-15.5 -224.5q0 -115 18 -211.5t48.5 -164.5t72.5 -121t87 -85.5t96.5 -53t97 -28.5t90.5 -8q188 0 302 92t210 293q3 6 11.5 11.5t11.5 3.5q1 -1 7 -5t11.5 -7t7.5 -3t4 -4t2.5 -10t-2.5 -12q-70 -202 -223.5 -323.5t-349.5 -121.5q-109 0 -212.5 28.5t-196.5 90 t-163 148.5t-111.5 212.5t-41.5 274.5zM588 -324l35 35q58 -39 145 -39q29 0 56.5 20.5t27.5 47.5q0 80 -123 80l53 180h68l-45 -129q69 -1 112.5 -35t43.5 -80q0 -54 -62.5 -93.5t-134.5 -39.5q-55 0 -92 11t-84 42z" />
<glyph unicode="&#xc8;" horiz-adv-x="1382" d="M272 4v1493l1051 -2v-53h-762q-48 0 -69 -17t-21 -65q0 -24 -3 -275.5t-3 -255.5q0 -15 3 -20.5t13 -5.5h187v-49h-179q-22 0 -22 -17l2 -547q0 -66 19 -95t75 -29h760v-62h-1051zM545 1765q0 72 63 72q17 0 34.5 -11.5t40 -38.5t45.5 -57.5t64 -82.5t82 -99l-20 -24 q-47 33 -104 70t-88.5 58t-61.5 43t-42.5 38.5t-12.5 31.5z" />
<glyph unicode="&#xc9;" horiz-adv-x="1382" d="M272 4v1493l1051 -2v-53h-762q-48 0 -69 -17t-21 -65q0 -24 -3 -275.5t-3 -255.5q0 -15 3 -20.5t13 -5.5h187v-49h-179q-22 0 -22 -17l2 -547q0 -66 19 -95t75 -29h760v-62h-1051zM592 1569q41 47 82 99t64 82.5t45.5 57.5t40 38.5t34.5 11.5q64 0 64 -72 q0 -15 -12.5 -31.5t-43 -39t-62 -43t-88.5 -58t-104 -70.5z" />
<glyph unicode="&#xca;" horiz-adv-x="1382" d="M272 4v1493l1051 -2v-53h-762q-48 0 -69 -17t-21 -65q0 -24 -3 -275.5t-3 -255.5q0 -15 3 -20.5t13 -5.5h187v-49h-179q-22 0 -22 -17l2 -547q0 -66 19 -95t75 -29h760v-62h-1051zM430 1550l272 355h37l252 -355l-33 -14l-237 207l-254 -205z" />
<glyph unicode="&#xcb;" horiz-adv-x="1382" d="M272 4v1493l1051 -2v-53h-762q-48 0 -69 -17t-21 -65q0 -24 -3 -275.5t-3 -255.5q0 -15 3 -20.5t13 -5.5h187v-49h-179q-22 0 -22 -17l2 -547q0 -66 19 -95t75 -29h760v-62h-1051zM461 1679q0 42 26.5 67.5t65.5 25.5t65.5 -27t26.5 -66q0 -42 -25 -67t-67 -25 q-38 0 -65 27.5t-27 64.5zM795 1679q0 42 26.5 67.5t65.5 25.5t65.5 -27t26.5 -66q0 -42 -25 -67t-67 -25q-38 0 -65 27.5t-27 64.5z" />
<glyph unicode="&#xcc;" horiz-adv-x="786" d="M176 1765q0 72 64 72q17 0 34.5 -11.5t40 -38.5t45.5 -57.5t64 -82.5t82 -99l-21 -24q-47 33 -104 70t-88.5 58t-61.5 43t-42.5 38.5t-12.5 31.5zM307 -4l2 1499h172v-1499h-174z" />
<glyph unicode="&#xcd;" horiz-adv-x="786" d="M264 1548q41 47 82 99t64 82.5t45.5 57.5t40 38.5t34.5 11.5q64 0 64 -72q0 -15 -12.5 -31.5t-42.5 -38.5t-61.5 -43t-88.5 -58t-104 -70zM307 -4l2 1499h172v-1499h-174z" />
<glyph unicode="&#xce;" horiz-adv-x="786" d="M102 1550l273 355h37l252 -355l-33 -14l-238 207l-254 -205zM307 -4l2 1499h172v-1499h-174z" />
<glyph unicode="&#xcf;" horiz-adv-x="786" d="M139 1679q0 42 26.5 67.5t65.5 25.5t66 -27t27 -66q0 -42 -25.5 -67t-67.5 -25q-38 0 -65 27.5t-27 64.5zM307 -4l2 1499h172v-1499h-174zM473 1679q0 42 26.5 67.5t65.5 25.5t65.5 -27t26.5 -66q0 -42 -25 -67t-67 -25q-38 0 -65 27.5t-27 64.5z" />
<glyph unicode="&#xd0;" horiz-adv-x="1583" d="M72 1458q0 18 5.5 24.5t18.5 6.5q7 0 42.5 -0.5t97 -1t133.5 -0.5q19 0 164.5 2t261.5 2q75 0 162 -24.5t181 -82t169.5 -139.5t124.5 -209t49 -278q0 -147 -40 -271.5t-110 -213.5t-164.5 -151t-205 -92t-230.5 -30q-143 0 -271.5 2t-135.5 2q-34 0 -118 -2t-110 -2 q-15 0 -18.5 6t-3.5 25q0 12 5 16t17 4q43 0 109 17q82 21 82 139q0 30 -3 552t-3 548q0 87 -91 112q-44 11 -84 11q-34 0 -34 28zM100 750v32q0 8 6.5 15.5t16.5 7.5h184q34 0 145 0.5t208 1t98 0.5q28 0 28 -23v-26q0 -11 -9 -20t-19 -9q-4 0 -96 1.5t-200.5 3t-152.5 1.5 q-39 0 -81.5 -0.5t-70 -1t-30.5 -0.5q-9 0 -18 5t-9 12zM459 197q0 -70 32 -107.5t91 -40.5q84 -9 254 8q62 7 117 26.5t115.5 68t103.5 120.5t71.5 193.5t28.5 277.5q0 227 -55.5 377t-157 224t-252.5 88q-102 8 -186 8q-160 0 -160 -133q0 -30 -1 -543.5t-1 -566.5z" />
<glyph unicode="&#xd1;" horiz-adv-x="1679" d="M311 0v1499h148q22 0 33 -16q6 -8 411.5 -576.5t411.5 -576.5t14 -6t8 12v1163h70q0 -51 -1 -436.5t-1.5 -643t0.5 -349.5v-80q0 -19 -25 -19q-17 0 -23.5 3.5t-13.5 13.5q-13 25 -73.5 110.5t-165.5 229.5t-208 283.5t-252.5 341.5t-246.5 335q-2 4 -8.5 5t-7.5 -7 v-1286h-70zM489 1597q50 100 97.5 151.5t115.5 51.5q45 0 90 -19t75 -41.5t70 -41.5t77 -19q45 0 71.5 17t55.5 73l20 -8q-33 -85 -82.5 -134.5t-113.5 -49.5q-45 0 -89.5 19t-73 42.5t-63.5 42.5t-65 19q-52 0 -86 -22.5t-78 -92.5z" />
<glyph unicode="&#xd2;" horiz-adv-x="1609" d="M102 723q0 150 41 282t110 226t158.5 162t188 101.5t197.5 33.5q132 0 258.5 -53.5t227.5 -149t162.5 -241t61.5 -316.5q0 -181 -56.5 -332.5t-152.5 -251t-221.5 -154.5t-265.5 -55q-137 0 -266 57.5t-227 156t-157 238.5t-59 296zM319 754q0 -144 21.5 -259.5 t54 -189.5t80.5 -129t91 -82t95.5 -43t83.5 -19t66 -3q36 0 72.5 6t85.5 25t92 49.5t86 86t73.5 127.5t50 179.5t19.5 238.5q0 129 -18.5 237t-48.5 181.5t-72 130t-85 89t-91 53t-85.5 27.5t-74.5 7q-30 0 -57.5 -2.5t-67 -11t-73 -23t-72.5 -41.5t-70 -63t-61 -90.5 t-50.5 -122t-32.5 -159t-12 -199.5zM627 1786q0 72 63 72q17 0 34.5 -11.5t40 -38.5t45.5 -57.5t64 -82.5t82 -99l-20 -25q-47 33 -104 70.5t-88.5 58t-61.5 43t-42.5 39t-12.5 31.5z" />
<glyph unicode="&#xd3;" horiz-adv-x="1609" d="M102 723q0 150 41 282t110 226t158.5 162t188 101.5t197.5 33.5q132 0 258.5 -53.5t227.5 -149t162.5 -241t61.5 -316.5q0 -181 -56.5 -332.5t-152.5 -251t-221.5 -154.5t-265.5 -55q-137 0 -266 57.5t-227 156t-157 238.5t-59 296zM319 754q0 -144 21.5 -259.5 t54 -189.5t80.5 -129t91 -82t95.5 -43t83.5 -19t66 -3q36 0 72.5 6t85.5 25t92 49.5t86 86t73.5 127.5t50 179.5t19.5 238.5q0 129 -18.5 237t-48.5 181.5t-72 130t-85 89t-91 53t-85.5 27.5t-74.5 7q-30 0 -57.5 -2.5t-67 -11t-73 -23t-72.5 -41.5t-70 -63t-61 -90.5 t-50.5 -122t-32.5 -159t-12 -199.5zM694 1569q41 47 82 99t64 82.5t46 57.5t40.5 38.5t34.5 11.5q63 0 63 -72q0 -15 -12.5 -31.5t-42.5 -39t-61.5 -43t-88.5 -58t-104 -70.5z" />
<glyph unicode="&#xd4;" horiz-adv-x="1609" d="M102 723q0 150 41 282t110 226t158.5 162t188 101.5t197.5 33.5q132 0 258.5 -53.5t227.5 -149t162.5 -241t61.5 -316.5q0 -181 -56.5 -332.5t-152.5 -251t-221.5 -154.5t-265.5 -55q-137 0 -266 57.5t-227 156t-157 238.5t-59 296zM319 754q0 -144 21.5 -259.5 t54 -189.5t80.5 -129t91 -82t95.5 -43t83.5 -19t66 -3q36 0 72.5 6t85.5 25t92 49.5t86 86t73.5 127.5t50 179.5t19.5 238.5q0 129 -18.5 237t-48.5 181.5t-72 130t-85 89t-91 53t-85.5 27.5t-74.5 7q-30 0 -57.5 -2.5t-67 -11t-73 -23t-72.5 -41.5t-70 -63t-61 -90.5 t-50.5 -122t-32.5 -159t-12 -199.5zM510 1550l272 355h37l252 -355l-33 -14l-237 207l-254 -205z" />
<glyph unicode="&#xd5;" horiz-adv-x="1609" d="M102 723q0 150 41 282t110 226t158.5 162t188 101.5t197.5 33.5q132 0 258.5 -53.5t227.5 -149t162.5 -241t61.5 -316.5q0 -181 -56.5 -332.5t-152.5 -251t-221.5 -154.5t-265.5 -55q-137 0 -266 57.5t-227 156t-157 238.5t-59 296zM319 754q0 -144 21.5 -259.5 t54 -189.5t80.5 -129t91 -82t95.5 -43t83.5 -19t66 -3q36 0 72.5 6t85.5 25t92 49.5t86 86t73.5 127.5t50 179.5t19.5 238.5q0 129 -18.5 237t-48.5 181.5t-72 130t-85 89t-91 53t-85.5 27.5t-74.5 7q-30 0 -57.5 -2.5t-67 -11t-73 -23t-72.5 -41.5t-70 -63t-61 -90.5 t-50.5 -122t-32.5 -159t-12 -199.5zM483 1597q50 100 97.5 151.5t115.5 51.5q45 0 90 -19t75 -41.5t70 -41.5t77 -19q45 0 71.5 17t55.5 73l20 -8q-33 -84 -83 -134t-114 -50q-45 0 -89 19t-73 42.5t-63.5 42.5t-64.5 19q-52 0 -86 -22.5t-78 -92.5z" />
<glyph unicode="&#xd6;" horiz-adv-x="1609" d="M102 723q0 150 41 282t110 226t158.5 162t188 101.5t197.5 33.5q132 0 258.5 -53.5t227.5 -149t162.5 -241t61.5 -316.5q0 -181 -56.5 -332.5t-152.5 -251t-221.5 -154.5t-265.5 -55q-137 0 -266 57.5t-227 156t-157 238.5t-59 296zM319 754q0 -144 21.5 -259.5 t54 -189.5t80.5 -129t91 -82t95.5 -43t83.5 -19t66 -3q36 0 72.5 6t85.5 25t92 49.5t86 86t73.5 127.5t50 179.5t19.5 238.5q0 129 -18.5 237t-48.5 181.5t-72 130t-85 89t-91 53t-85.5 27.5t-74.5 7q-30 0 -57.5 -2.5t-67 -11t-73 -23t-72.5 -41.5t-70 -63t-61 -90.5 t-50.5 -122t-32.5 -159t-12 -199.5zM539 1679q0 42 26.5 67.5t65.5 25.5t65.5 -27t26.5 -66q0 -42 -25 -67t-67 -25q-38 0 -65 27.5t-27 64.5zM872 1679q0 42 27 67.5t66 25.5t65.5 -27t26.5 -66q0 -42 -25 -67t-67 -25q-38 0 -65.5 27.5t-27.5 64.5z" />
<glyph unicode="&#xd7;" horiz-adv-x="1212" d="M231 414l312 311l-301 301l75 76l301 -301l304 303l73 -74l-303 -303l299 -299l-76 -76l-299 299l-311 -311z" />
<glyph unicode="&#xd8;" horiz-adv-x="1609" d="M78 -33l215 250q-90 101 -140.5 230.5t-50.5 275.5q0 150 41 282t110 226t158.5 162t188 101.5t197.5 33.5q126 0 246 -46.5t217 -135.5l221 258l63 -56l-225 -262q188 -211 188 -518q0 -181 -56.5 -332.5t-152.5 -251t-221.5 -154.5t-265.5 -55q-125 0 -244 48t-215 135 l-205 -240zM319 754q0 -257 68 -426l791 923q-39 63 -88.5 108t-100 67t-92.5 31t-82 9q-30 0 -57.5 -2.5t-67 -11t-73 -23t-72.5 -41.5t-70 -63t-61 -90.5t-50.5 -122t-32.5 -159t-12 -199.5zM426 244q126 -215 385 -215q36 0 72.5 6t85.5 25t92 49.5t86 86t73.5 127.5 t50 179.5t19.5 238.5q0 264 -71 428z" />
<glyph unicode="&#xd9;" horiz-adv-x="1667" d="M274 477v1016h181v-954q0 -250 107.5 -376t297.5 -126q103 0 183.5 25.5t132 69t85 105.5t47 129.5t13.5 145.5v981h76v-981q0 -249 -137.5 -396t-397.5 -147q-276 0 -432 127t-156 381zM709 1765q0 72 63 72q17 0 34.5 -11.5t40 -38.5t45.5 -57.5t64 -82.5t82 -99 l-20 -24q-47 33 -104 70t-88.5 58t-61.5 43t-42.5 38.5t-12.5 31.5z" />
<glyph unicode="&#xda;" horiz-adv-x="1667" d="M274 477v1016h181v-954q0 -250 107.5 -376t297.5 -126q103 0 183.5 25.5t132 69t85 105.5t47 129.5t13.5 145.5v981h76v-981q0 -249 -137.5 -396t-397.5 -147q-276 0 -432 127t-156 381zM776 1548q41 47 82 99t64 82.5t45.5 57.5t40 38.5t34.5 11.5q64 0 64 -72 q0 -15 -12.5 -31.5t-42.5 -38.5t-61.5 -43t-88.5 -58t-104 -70z" />
<glyph unicode="&#xdb;" horiz-adv-x="1667" d="M274 477v1016h181v-954q0 -250 107.5 -376t297.5 -126q103 0 183.5 25.5t132 69t85 105.5t47 129.5t13.5 145.5v981h76v-981q0 -249 -137.5 -396t-397.5 -147q-276 0 -432 127t-156 381zM594 1550l272 355h37l252 -355l-33 -14l-237 207l-254 -205z" />
<glyph unicode="&#xdc;" horiz-adv-x="1667" d="M274 477v1016h181v-954q0 -250 107.5 -376t297.5 -126q103 0 183.5 25.5t132 69t85 105.5t47 129.5t13.5 145.5v981h76v-981q0 -249 -137.5 -396t-397.5 -147q-276 0 -432 127t-156 381zM614 1679q0 42 27 67.5t66 25.5t65.5 -27t26.5 -66q0 -42 -25 -67t-67 -25 q-38 0 -65.5 27.5t-27.5 64.5zM948 1679q0 42 26.5 67.5t65.5 25.5t66 -27t27 -66q0 -42 -25.5 -67t-67.5 -25q-38 0 -65 27.5t-27 64.5z" />
<glyph unicode="&#xdd;" horiz-adv-x="1546" d="M154 1495h221q0 -22 454 -788q54 87 178.5 287t213 343t96.5 158h84q-23 -28 -237.5 -371.5t-295.5 -486.5v-635h-176v602zM694 1548q41 47 82 99t64 82.5t46 57.5t40.5 38.5t34.5 11.5q63 0 63 -72q0 -15 -12.5 -31.5t-42.5 -38.5t-61.5 -43t-88.5 -58t-104 -70z" />
<glyph unicode="&#xde;" horiz-adv-x="1343" d="M291 10v1485h168v-313q72 2 303 2q58 0 122 -15.5t128 -49t114.5 -79.5t82.5 -113t32 -143q0 -81 -32 -149t-85.5 -113.5t-124.5 -77t-147 -45.5t-156 -14q-48 0 -97 0.5t-79.5 1t-34.5 0.5q-13 0 -16.5 -4t-3.5 -14q0 -2 -1 -157t-1 -200zM463 467q0 -21 20 -21 q36 0 124 1.5t108 1.5q147 5 232 85.5t85 237.5q0 42 -2 72t-8 65.5t-17.5 61t-31.5 52t-48.5 45t-70 34t-94.5 24.5q-45 7 -254 7q-23 0 -32 -6.5t-9 -28.5q0 -41 -1 -336z" />
<glyph unicode="&#xdf;" horiz-adv-x="1189" d="M217 1077q0 64 16 152q21 94 62.5 163.5t96 107.5t112 55.5t119.5 17.5q182 0 285.5 -103t103.5 -274q0 -128 -105 -225t-256 -121q110 -7 200 -48t147.5 -104.5t88.5 -142t31 -162.5q0 -183 -110 -306.5t-258 -123.5q-130 0 -157 36q-15 21 17 36q50 24 135 -4 q26 -10 52 -23q37 -19 73.5 18t61 121t24.5 189q0 463 -424 491q-12 0 -12 21q0 18 12 18q162 10 241 102.5t79 239.5q0 151 -56.5 231.5t-185.5 80.5q-56 0 -102.5 -22.5t-76 -59t-46.5 -78t-20 -82.5q-9 -72 -9 -135q0 -105 3.5 -380t6.5 -501t1 -264l-148 6 q0 57 -1 478.5t-1 594.5z" />
<glyph unicode="&#xe0;" horiz-adv-x="933" d="M111 217q0 66 32 119.5t81 88t119 60t134 39t137 21.5q19 2 19 24l2 78q-1 31 -11.5 62.5t-31.5 62t-59.5 50.5t-88.5 22q-58 0 -101.5 -14t-66 -33t-38.5 -38t-28.5 -30t-25.5 -8q-27 13 -2 57q32 57 111 96q70 34 151 35q77 0 135.5 -23t92.5 -58t55 -83t28 -91t7 -89 v-565h-109l-24 66q-14 -5 -51 -21t-61.5 -25t-69 -17.5t-91.5 -8.5q-103 0 -174 63t-71 160zM264 231q0 -76 43 -125.5t109 -37.5q128 24 215 57v377q-45 -9 -69.5 -14t-69 -17t-71 -24.5t-60 -33.5t-52 -45.5t-32 -59.5t-13.5 -77zM340 1233q0 72 63 72q27 0 54.5 -27.5 t92 -112.5t120.5 -149l-21 -25q-47 33 -104 70.5t-88.5 58t-61.5 43t-42.5 39t-12.5 31.5z" />
<glyph unicode="&#xe1;" horiz-adv-x="933" d="M111 217q0 66 32 119.5t81 88t119 60t134 39t137 21.5q19 2 19 24l2 78q-1 31 -11.5 62.5t-31.5 62t-59.5 50.5t-88.5 22q-58 0 -101.5 -14t-66 -33t-38.5 -38t-28.5 -30t-25.5 -8q-27 13 -2 57q32 57 111 96q70 34 151 35q77 0 135.5 -23t92.5 -58t55 -83t28 -91t7 -89 v-565h-109l-24 66q-14 -5 -51 -21t-61.5 -25t-69 -17.5t-91.5 -8.5q-103 0 -174 63t-71 160zM264 231q0 -76 43 -125.5t109 -37.5q128 24 215 57v377q-45 -9 -69.5 -14t-69 -17t-71 -24.5t-60 -33.5t-52 -45.5t-32 -59.5t-13.5 -77zM326 1016q41 47 82 99t64 82.5t45.5 57.5 t40 38.5t34.5 11.5q63 0 63 -72q0 -15 -12.5 -31.5t-42.5 -39t-61.5 -43t-88.5 -58t-104 -70.5z" />
<glyph unicode="&#xe2;" horiz-adv-x="933" d="M111 217q0 66 32 119.5t81 88t119 60t134 39t137 21.5q19 2 19 24l2 78q-1 31 -11.5 62.5t-31.5 62t-59.5 50.5t-88.5 22q-58 0 -101.5 -14t-66 -33t-38.5 -38t-28.5 -30t-25.5 -8q-27 13 -2 57q32 57 111 96q70 34 151 35q77 0 135.5 -23t92.5 -58t55 -83t28 -91t7 -89 v-565h-109l-24 66q-14 -5 -51 -21t-61.5 -25t-69 -17.5t-91.5 -8.5q-103 0 -174 63t-71 160zM170 1018l272 354h37l252 -354l-33 -14l-237 206l-254 -204zM264 231q0 -76 43 -125.5t109 -37.5q128 24 215 57v377q-45 -9 -69.5 -14t-69 -17t-71 -24.5t-60 -33.5t-52 -45.5 t-32 -59.5t-13.5 -77z" />
<glyph unicode="&#xe3;" horiz-adv-x="933" d="M111 217q0 66 32 119.5t81 88t119 60t134 39t137 21.5q19 2 19 24l2 78q-1 31 -11.5 62.5t-31.5 62t-59.5 50.5t-88.5 22q-58 0 -101.5 -14t-66 -33t-38.5 -38t-28.5 -30t-25.5 -8q-27 13 -2 57q32 57 111 96q70 34 151 35q77 0 135.5 -23t92.5 -58t55 -83t28 -91t7 -89 v-565h-109l-24 66q-14 -5 -51 -21t-61.5 -25t-69 -17.5t-91.5 -8.5q-103 0 -174 63t-71 160zM150 1044q50 100 97.5 151.5t114.5 51.5q45 0 90 -19t75 -41.5t70 -41.5t77 -19q45 0 71.5 17.5t55.5 73.5l20 -9q-33 -85 -82.5 -134.5t-113.5 -49.5q-45 0 -89.5 19t-73 42.5 t-63.5 42.5t-65 19q-52 0 -86 -22.5t-78 -92.5zM264 231q0 -76 43 -125.5t109 -37.5q128 24 215 57v377q-45 -9 -69.5 -14t-69 -17t-71 -24.5t-60 -33.5t-52 -45.5t-32 -59.5t-13.5 -77z" />
<glyph unicode="&#xe4;" horiz-adv-x="933" d="M111 217q0 66 32 119.5t81 88t119 60t134 39t137 21.5q19 2 19 24l2 78q-1 31 -11.5 62.5t-31.5 62t-59.5 50.5t-88.5 22q-58 0 -101.5 -14t-66 -33t-38.5 -38t-28.5 -30t-25.5 -8q-27 13 -2 57q32 57 111 96q70 34 151 35q77 0 135.5 -23t92.5 -58t55 -83t28 -91t7 -89 v-565h-109l-24 66q-14 -5 -51 -21t-61.5 -25t-69 -17.5t-91.5 -8.5q-103 0 -174 63t-71 160zM215 1188q0 42 26.5 67t65.5 25t65.5 -26.5t26.5 -65.5q0 -42 -25 -67t-67 -25q-38 0 -65 27.5t-27 64.5zM264 231q0 -76 43 -125.5t109 -37.5q128 24 215 57v377 q-45 -9 -69.5 -14t-69 -17t-71 -24.5t-60 -33.5t-52 -45.5t-32 -59.5t-13.5 -77zM549 1188q0 42 26.5 67t65.5 25t65.5 -26.5t26.5 -65.5q0 -42 -25 -67t-67 -25q-38 0 -65 27.5t-27 64.5z" />
<glyph unicode="&#xe5;" horiz-adv-x="933" d="M111 217q0 66 32 119.5t81 88t119 60t134 39t137 21.5q19 2 19 24l2 78q-1 31 -11.5 62.5t-31.5 62t-59.5 50.5t-88.5 22q-58 0 -101.5 -14t-66 -33t-38.5 -38t-28.5 -30t-25.5 -8q-27 13 -2 57q32 57 111 96q70 34 151 35q77 0 135.5 -23t92.5 -58t55 -83t28 -91t7 -89 v-565h-109l-24 66q-14 -5 -51 -21t-61.5 -25t-69 -17.5t-91.5 -8.5q-103 0 -174 63t-71 160zM264 231q0 -76 43 -125.5t109 -37.5q128 24 215 57v377q-45 -9 -69.5 -14t-69 -17t-71 -24.5t-60 -33.5t-52 -45.5t-32 -59.5t-13.5 -77zM301 1157q0 75 54.5 129.5t129.5 54.5 t130 -54.5t55 -129.5q0 -76 -55 -130t-130 -54t-129.5 54.5t-54.5 129.5zM360 1157q0 -51 37 -88t88 -37t88 37t37 88t-37 88t-88 37t-88 -37t-37 -88z" />
<glyph unicode="&#xe6;" horiz-adv-x="1468" d="M109 197q0 66 33.5 121.5t85.5 93t123 66t139 44t139 23.5q16 2 16 24l-2 129q-2 61 -36 105.5t-91 44.5q-124 0 -162 -64q-20 -38 -26 -88q-2 -30 -28 -59t-69 -29q-38 0 -61 21.5t-23 58.5q0 83 113.5 149t276.5 66q92 0 152.5 -31t76.5 -79q64 70 121.5 103.5 t140.5 33.5q87 0 156.5 -38.5t111 -99.5t63 -130.5t21.5 -139.5q0 -15 -3.5 -19.5t-16.5 -4.5h-576q0 -104 18 -184t46.5 -128.5t68 -79t77.5 -42t79 -11.5q83 0 152.5 38.5t117.5 109.5q16 22 33 10q24 -16 10 -35q-30 -46 -62 -80.5t-77 -65t-105.5 -47t-133.5 -16.5 q-110 0 -183 51.5t-131 153.5q-50 -72 -145.5 -125t-192.5 -53q-105 0 -176 54t-71 149zM266 231q0 -74 41 -118.5t111 -44.5q67 0 129 34t96 88v310q-43 -8 -69.5 -13t-70.5 -17t-73 -24.5t-63 -33.5t-54 -45.5t-33.5 -59.5t-13.5 -76zM786 567h424q3 154 -39.5 229.5 t-142.5 75.5q-83 0 -157.5 -77.5t-84.5 -227.5z" />
<glyph unicode="&#xe7;" horiz-adv-x="931" d="M80 487q4 101 45 186t104.5 139t141 83t155.5 27q85 -3 156.5 -43t99 -80.5t9.5 -50.5q-17 -7 -95 59t-176 63q-117 -2 -190 -101t-82 -288q-5 -113 15.5 -198t61 -134t92 -73.5t115.5 -26.5q169 -5 267 158q13 23 35 12q19 -13 12 -31q-17 -36 -45 -71.5t-70.5 -72 t-104 -58t-130.5 -19.5q-87 2 -163 37t-134.5 98.5t-90.5 163t-28 221.5zM301 -324l35 35q58 -39 145 -39q29 0 56.5 20.5t27.5 47.5q0 80 -123 80l54 180h67l-45 -129q69 -1 112.5 -35t43.5 -80q0 -54 -62.5 -93.5t-134.5 -39.5q-55 0 -92 11t-84 42z" />
<glyph unicode="&#xe8;" horiz-adv-x="966" d="M86 410q0 139 54 257.5t153 190.5t221 72q87 0 158.5 -38.5t115.5 -99t67.5 -131t23.5 -139.5q0 -15 -4 -19.5t-17 -4.5h-608q0 -103 21.5 -184t54.5 -129t77.5 -79t85 -42t82.5 -11q83 0 153.5 38.5t117.5 109.5q16 22 32 10q24 -16 11 -35q-63 -97 -151 -153t-228 -56 q-177 0 -298.5 128.5t-121.5 314.5zM248 549h473q3 142 -59.5 231t-147.5 92q-95 3 -175.5 -83t-90.5 -240zM299 1233q0 72 63 72q27 0 54.5 -27.5t92 -112.5t120.5 -149l-21 -25q-47 33 -104 70.5t-88.5 58t-61.5 43t-42.5 39t-12.5 31.5z" />
<glyph unicode="&#xe9;" horiz-adv-x="966" d="M86 410q0 139 54 257.5t153 190.5t221 72q87 0 158.5 -38.5t115.5 -99t67.5 -131t23.5 -139.5q0 -15 -4 -19.5t-17 -4.5h-608q0 -103 21.5 -184t54.5 -129t77.5 -79t85 -42t82.5 -11q83 0 153.5 38.5t117.5 109.5q16 22 32 10q24 -16 11 -35q-63 -97 -151 -153t-228 -56 q-177 0 -298.5 128.5t-121.5 314.5zM248 549h473q3 142 -59.5 231t-147.5 92q-95 3 -175.5 -83t-90.5 -240zM326 1016q41 47 82 99t64 82.5t45.5 57.5t40 38.5t34.5 11.5q63 0 63 -72q0 -15 -12.5 -31.5t-42.5 -39t-61.5 -43t-88.5 -58t-104 -70.5z" />
<glyph unicode="&#xea;" horiz-adv-x="966" d="M86 410q0 139 54 257.5t153 190.5t221 72q87 0 158.5 -38.5t115.5 -99t67.5 -131t23.5 -139.5q0 -15 -4 -19.5t-17 -4.5h-608q0 -103 21.5 -184t54.5 -129t77.5 -79t85 -42t82.5 -11q83 0 153.5 38.5t117.5 109.5q16 22 32 10q24 -16 11 -35q-63 -97 -151 -153t-228 -56 q-177 0 -298.5 128.5t-121.5 314.5zM221 1018l273 354h36l252 -354l-32 -14l-238 206l-254 -204zM248 549h473q3 142 -59.5 231t-147.5 92q-95 3 -175.5 -83t-90.5 -240z" />
<glyph unicode="&#xeb;" horiz-adv-x="966" d="M86 410q0 139 54 257.5t153 190.5t221 72q87 0 158.5 -38.5t115.5 -99t67.5 -131t23.5 -139.5q0 -15 -4 -19.5t-17 -4.5h-608q0 -103 21.5 -184t54.5 -129t77.5 -79t85 -42t82.5 -11q83 0 153.5 38.5t117.5 109.5q16 22 32 10q24 -16 11 -35q-63 -97 -151 -153t-228 -56 q-177 0 -298.5 128.5t-121.5 314.5zM246 1188q0 42 26.5 67t65.5 25t65.5 -26.5t26.5 -65.5q0 -42 -25 -67t-67 -25q-38 0 -65 27.5t-27 64.5zM248 549h473q3 142 -59.5 231t-147.5 92q-95 3 -175.5 -83t-90.5 -240zM580 1188q0 42 26.5 67t65.5 25t65.5 -26.5t26.5 -65.5 q0 -42 -25 -67t-67 -25q-38 0 -65 27.5t-27 64.5z" />
<glyph unicode="&#xec;" horiz-adv-x="569" d="M74 1233q0 72 63 72q17 0 34.5 -11.5t40 -38.5t45.5 -57.5t64 -82.5t82 -99l-20 -25q-47 33 -104 70.5t-88.5 58t-61.5 43t-42.5 39t-12.5 31.5zM227 2v870l109 50q12 6 20.5 0.5t8.5 -19.5v-901h-138z" />
<glyph unicode="&#xed;" horiz-adv-x="569" d="M121 1016q41 47 82 99t64 82.5t45.5 57.5t40 38.5t34.5 11.5q64 0 64 -72q0 -15 -12.5 -31.5t-43 -39t-62 -43t-88.5 -58t-104 -70.5zM227 2v870l109 50q12 6 20.5 0.5t8.5 -19.5v-901h-138z" />
<glyph unicode="&#xee;" horiz-adv-x="569" d="M-10 1018l272 354h37l252 -354l-33 -14l-237 206l-254 -204zM227 2v870l109 50q12 6 20.5 0.5t8.5 -19.5v-901h-138z" />
<glyph unicode="&#xef;" horiz-adv-x="569" d="M10 1188q0 42 26.5 67t65.5 25t66 -26.5t27 -65.5q0 -42 -25.5 -67t-67.5 -25q-38 0 -65 27.5t-27 64.5zM227 2v870l109 50q12 6 20.5 0.5t8.5 -19.5v-901h-138zM344 1188q0 42 26.5 67t65.5 25t65.5 -26.5t26.5 -65.5q0 -42 -25 -67t-67 -25q-38 0 -65 27.5t-27 64.5z " />
<glyph unicode="&#xf1;" horiz-adv-x="1144" d="M219 0v872l105 50q28 6 28 -19v-160q51 70 132 121t167 51q41 0 78 -6.5t76 -25t67 -47t46 -76.5t18 -109v-649h-141v610q0 56 -18.5 99.5t-47 67t-59 35t-58.5 11.5q-145 0 -258 -143q2 -211 2 -682h-137zM233 1044q50 100 97.5 151.5t115.5 51.5q45 0 90 -19t75 -41.5 t70 -41.5t77 -19q45 0 71.5 17.5t55.5 73.5l20 -9q-33 -85 -82.5 -134.5t-113.5 -49.5q-45 0 -89.5 19t-73 42.5t-63.5 42.5t-65 19q-52 0 -86 -22.5t-78 -92.5z" />
<glyph unicode="&#xf2;" horiz-adv-x="1064" d="M86 438q0 115 42.5 211.5t108.5 156t142 92t149 32.5q85 0 165.5 -32.5t144.5 -91t102.5 -150t38.5 -201.5q0 -117 -38 -211.5t-102 -154t-144 -91t-167 -31.5q-121 0 -224 68.5t-160.5 176.5t-57.5 226zM258 442q0 -103 20 -182t49 -124t67.5 -73.5t69.5 -37.5t60 -9 q30 0 58 6t62 21.5t61.5 46.5t51.5 76.5t37 117t13 162.5q0 104 -18.5 184t-46.5 125.5t-66.5 74t-72 38t-68.5 9.5q-39 0 -73.5 -9.5t-73 -38.5t-66.5 -75t-46 -126.5t-18 -185.5zM319 1233q0 72 64 72q17 0 34.5 -11.5t40 -38.5t45.5 -57.5t64 -82.5t82 -99l-20 -25 q-47 33 -104 70.5t-88.5 58t-62 43t-43 39t-12.5 31.5z" />
<glyph unicode="&#xf3;" horiz-adv-x="1064" d="M86 438q0 115 42.5 211.5t108.5 156t142 92t149 32.5q85 0 165.5 -32.5t144.5 -91t102.5 -150t38.5 -201.5q0 -117 -38 -211.5t-102 -154t-144 -91t-167 -31.5q-121 0 -224 68.5t-160.5 176.5t-57.5 226zM258 442q0 -103 20 -182t49 -124t67.5 -73.5t69.5 -37.5t60 -9 q30 0 58 6t62 21.5t61.5 46.5t51.5 76.5t37 117t13 162.5q0 104 -18.5 184t-46.5 125.5t-66.5 74t-72 38t-68.5 9.5q-39 0 -73.5 -9.5t-73 -38.5t-66.5 -75t-46 -126.5t-18 -185.5zM362 1016q41 47 82 99t64 82.5t46 57.5t40.5 38.5t34.5 11.5q63 0 63 -72 q0 -15 -12.5 -31.5t-42.5 -39t-61.5 -43t-88.5 -58t-104 -70.5z" />
<glyph unicode="&#xf4;" horiz-adv-x="1064" d="M86 438q0 115 42.5 211.5t108.5 156t142 92t149 32.5q85 0 165.5 -32.5t144.5 -91t102.5 -150t38.5 -201.5q0 -117 -38 -211.5t-102 -154t-144 -91t-167 -31.5q-121 0 -224 68.5t-160.5 176.5t-57.5 226zM229 1018l273 354h37l252 -354l-33 -14l-238 206l-254 -204z M258 442q0 -103 20 -182t49 -124t67.5 -73.5t69.5 -37.5t60 -9q30 0 58 6t62 21.5t61.5 46.5t51.5 76.5t37 117t13 162.5q0 104 -18.5 184t-46.5 125.5t-66.5 74t-72 38t-68.5 9.5q-39 0 -73.5 -9.5t-73 -38.5t-66.5 -75t-46 -126.5t-18 -185.5z" />
<glyph unicode="&#xf5;" horiz-adv-x="1064" d="M86 438q0 115 42.5 211.5t108.5 156t142 92t149 32.5q85 0 165.5 -32.5t144.5 -91t102.5 -150t38.5 -201.5q0 -117 -38 -211.5t-102 -154t-144 -91t-167 -31.5q-121 0 -224 68.5t-160.5 176.5t-57.5 226zM211 1044q50 100 97.5 151.5t115.5 51.5q45 0 89.5 -19t75 -41.5 t70 -41.5t76.5 -19q45 0 71.5 17.5t55.5 73.5l21 -9q-33 -84 -83 -134t-114 -50q-45 0 -89.5 19t-73 42.5t-63.5 42.5t-65 19q-52 0 -86 -22.5t-78 -92.5zM258 442q0 -103 20 -182t49 -124t67.5 -73.5t69.5 -37.5t60 -9q30 0 58 6t62 21.5t61.5 46.5t51.5 76.5t37 117 t13 162.5q0 104 -18.5 184t-46.5 125.5t-66.5 74t-72 38t-68.5 9.5q-39 0 -73.5 -9.5t-73 -38.5t-66.5 -75t-46 -126.5t-18 -185.5z" />
<glyph unicode="&#xf6;" horiz-adv-x="1064" d="M86 438q0 115 42.5 211.5t108.5 156t142 92t149 32.5q85 0 165.5 -32.5t144.5 -91t102.5 -150t38.5 -201.5q0 -117 -38 -211.5t-102 -154t-144 -91t-167 -31.5q-121 0 -224 68.5t-160.5 176.5t-57.5 226zM258 442q0 -103 20 -182t49 -124t67.5 -73.5t69.5 -37.5t60 -9 q30 0 58 6t62 21.5t61.5 46.5t51.5 76.5t37 117t13 162.5q0 104 -18.5 184t-46.5 125.5t-66.5 74t-72 38t-68.5 9.5q-39 0 -73.5 -9.5t-73 -38.5t-66.5 -75t-46 -126.5t-18 -185.5zM266 1188q0 42 26.5 67t65.5 25t66 -26.5t27 -65.5q0 -42 -25.5 -67t-67.5 -25 q-38 0 -65 27.5t-27 64.5zM600 1188q0 42 26.5 67t65.5 25t65.5 -26.5t26.5 -65.5q0 -42 -25 -67t-67 -25q-38 0 -65 27.5t-27 64.5z" />
<glyph unicode="&#xf7;" horiz-adv-x="1212" d="M125 670v104h975v-104h-975zM514 356q0 42 26.5 67.5t65.5 25.5q38 0 65 -26.5t27 -66.5q0 -42 -25 -67t-67 -25q-38 0 -65 27.5t-27 64.5zM514 1081q0 42 26.5 67.5t65.5 25.5q38 0 65 -27t27 -66q0 -42 -25 -67t-67 -25q-38 0 -65 27.5t-27 64.5z" />
<glyph unicode="&#xf8;" horiz-adv-x="1064" d="M70 -39l135 162q-119 142 -119 315q0 115 42.5 211.5t108.5 156t142 92t149 32.5q150 0 275 -92l121 145l63 -55l-123 -148q115 -131 115 -325q0 -117 -38 -211.5t-102 -154t-144 -91t-167 -31.5q-145 0 -262 96l-127 -151zM258 442q0 -121 31 -219l448 537 q-71 117 -202 117q-39 0 -73.5 -9.5t-73 -38.5t-66.5 -75t-46 -126.5t-18 -185.5zM328 137q40 -66 94.5 -93.5t101.5 -27.5q30 0 58 6t62 21.5t61.5 46.5t51.5 76.5t37 117t13 162.5q0 128 -31 230z" />
<glyph unicode="&#xf9;" horiz-adv-x="1081" d="M176 233v617l133 70q11 6 18 1t7 -16q0 -3 -6 -284t-6 -316q0 -101 49.5 -167t140.5 -66q25 0 47.5 2.5t38 5t39 9.5t34.5 11t41 16t44 17l-2 782h139v-927l-96 2q-41 -3 -41 22q0 3 2.5 25t1.5 53q-38 -27 -59.5 -40t-62.5 -34.5t-85 -31t-92 -9.5q-36 0 -73 7.5 t-76 26.5t-68.5 47t-48.5 74t-19 103zM279 1233q0 72 63 72q17 0 34.5 -11.5t40 -38.5t45.5 -57.5t64 -82.5t82 -99l-20 -25q-47 33 -104 70.5t-88.5 58t-61.5 43t-42.5 39t-12.5 31.5z" />
<glyph unicode="&#xfa;" horiz-adv-x="1081" d="M176 233v617l133 70q11 6 18 1t7 -16q0 -3 -6 -284t-6 -316q0 -101 49.5 -167t140.5 -66q25 0 47.5 2.5t38 5t39 9.5t34.5 11t41 16t44 17l-2 782h139v-927l-96 2q-41 -3 -41 22q0 3 2.5 25t1.5 53q-38 -27 -59.5 -40t-62.5 -34.5t-85 -31t-92 -9.5q-36 0 -73 7.5 t-76 26.5t-68.5 47t-48.5 74t-19 103zM408 1016q41 47 82 99t64 82.5t45.5 57.5t40 38.5t34.5 11.5q63 0 63 -72q0 -15 -12.5 -31.5t-42.5 -39t-61.5 -43t-88.5 -58t-104 -70.5z" />
<glyph unicode="&#xfb;" horiz-adv-x="1081" d="M176 233v617l133 70q11 6 18 1t7 -16q0 -3 -6 -284t-6 -316q0 -101 49.5 -167t140.5 -66q25 0 47.5 2.5t38 5t39 9.5t34.5 11t41 16t44 17l-2 782h139v-927l-96 2q-41 -3 -41 22q0 3 2.5 25t1.5 53q-38 -27 -59.5 -40t-62.5 -34.5t-85 -31t-92 -9.5q-36 0 -73 7.5 t-76 26.5t-68.5 47t-48.5 74t-19 103zM205 1018l272 354h37l252 -354l-33 -14l-237 206l-254 -204z" />
<glyph unicode="&#xfc;" horiz-adv-x="1081" d="M176 233v617l133 70q11 6 18 1t7 -16q0 -3 -6 -284t-6 -316q0 -101 49.5 -167t140.5 -66q25 0 47.5 2.5t38 5t39 9.5t34.5 11t41 16t44 17l-2 782h139v-927l-96 2q-41 -3 -41 22q0 3 2.5 25t1.5 53q-38 -27 -59.5 -40t-62.5 -34.5t-85 -31t-92 -9.5q-36 0 -73 7.5 t-76 26.5t-68.5 47t-48.5 74t-19 103zM276 1188q0 42 27 67t66 25t65.5 -26.5t26.5 -65.5q0 -42 -25 -67t-67 -25q-38 0 -65.5 27.5t-27.5 64.5zM610 1188q0 42 26.5 67t65.5 25t66 -26.5t27 -65.5q0 -42 -25.5 -67t-67.5 -25q-38 0 -65 27.5t-27 64.5z" />
<glyph unicode="&#xfd;" horiz-adv-x="1017" d="M100.5 -341q-0.5 10 7 15t21 7.5t32.5 5t40.5 6t47 11.5t50 19.5t50.5 33t48 50.5q9 13 24 42.5t38 76.5t37 74l-390 883h154q283 -677 289 -693q4 -12 12.5 -12.5t11.5 10.5l252 695h68q-259 -705 -334 -883q-57 -138 -100 -201q-40 -59 -87.5 -100.5t-89 -59.5 t-78.5 -24.5t-61 -0.5t-32 19q-10 16 -10.5 26zM449 1016q41 47 82 99t64 82.5t45.5 57.5t40 38.5t34.5 11.5q63 0 63 -72q0 -15 -12.5 -31.5t-42.5 -39t-61.5 -43t-88.5 -58t-104 -70.5z" />
<glyph unicode="&#xfe;" horiz-adv-x="1105" d="M219 -252v1782l105 35q28 6 28 -19v-782q139 151 271 151q74 0 142.5 -25t126.5 -74.5t93 -134.5t35 -194q0 -125 -35 -227t-91 -162.5t-121 -92.5t-130 -32q-193 0 -291 136v-375zM352 164q103 -127 246 -127q35 0 67 8.5t68.5 35.5t63 69.5t44 117.5t17.5 174 q0 404 -256 404q-149 0 -250 -156v-526z" />
<glyph unicode="&#xff;" horiz-adv-x="1017" d="M100.5 -341q-0.5 10 7 15t21 7.5t32.5 5t40.5 6t47 11.5t50 19.5t50.5 33t48 50.5q9 13 24 42.5t38 76.5t37 74l-390 883h154q283 -677 289 -693q4 -12 12.5 -12.5t11.5 10.5l252 695h68q-259 -705 -334 -883q-57 -138 -100 -201q-40 -59 -87.5 -100.5t-89 -59.5 t-78.5 -24.5t-61 -0.5t-32 19q-10 16 -10.5 26zM268 1188q0 42 26.5 67t65.5 25t66 -26.5t27 -65.5q0 -42 -25.5 -67t-67.5 -25q-38 0 -65 27.5t-27 64.5zM602 1188q0 42 26.5 67t65.5 25t65.5 -26.5t26.5 -65.5q0 -42 -25 -67t-67 -25q-38 0 -65 27.5t-27 64.5z" />
<glyph unicode="&#x152;" horiz-adv-x="2306" d="M102 723q0 150 40 282t107 226t154 162t182.5 101.5t190.5 33.5q110 0 201 -15.5t108 -15.5h220h817v-65h-736v-603q0 -26 17 -26h186l2 -68h-178q-22 0 -22 -12v-533q0 -65 17.5 -92.5t74.5 -27.5h694l-4 -66q-3 0 -198 -0.5t-401.5 -1t-236.5 -0.5h-274q-24 1 -108 -13 t-164 -14q-131 0 -256 57.5t-220.5 156t-154 239t-58.5 295.5zM319 754q0 -144 21 -259.5t52.5 -189.5t78 -129t87.5 -82t91.5 -43t80 -19t61.5 -3q162 0 264 50t149 171q1 90 1 279t-0.5 415.5t-0.5 284.5q-65 237 -409 237q-37 0 -71 -4t-84 -21t-91.5 -45t-85.5 -82.5 t-74.5 -127t-50 -184t-19.5 -248.5z" />
<glyph unicode="&#x153;" horiz-adv-x="1611" d="M86 438q0 93 26 174.5t68.5 138.5t97.5 98t114 61t116 20q102 0 191.5 -45.5t154.5 -132.5q124 178 311 178q87 0 158 -38.5t114 -99.5t66 -131t23 -139q0 -15 -4 -19.5t-17 -4.5h-608q0 -103 22 -184t56 -128.5t79 -79t86 -42.5t83 -11q167 0 266 148q16 22 33 10 q24 -16 10 -35q-63 -98 -149.5 -153.5t-225.5 -55.5q-96 0 -179 49t-136 129q-57 -82 -146.5 -130t-187.5 -48q-121 0 -219 69t-150.5 176t-52.5 226zM258 442q0 -103 18 -182t44 -124t61.5 -73.5t64.5 -37.5t58 -9q250 0 250 430q0 105 -15.5 184.5t-39 125.5t-56.5 74 t-63.5 37.5t-65.5 9.5q-256 0 -256 -435zM899 567h457q6 305 -191 305q-98 0 -177 -76.5t-89 -228.5z" />
<glyph unicode="&#x178;" horiz-adv-x="1546" d="M154 1495h221q0 -22 454 -788q54 87 178.5 287t213 343t96.5 158h84q-23 -28 -237.5 -371.5t-295.5 -486.5v-635h-176v602zM563 1679q0 42 26.5 67.5t65.5 25.5t66 -27t27 -66q0 -42 -25.5 -67t-67.5 -25q-38 0 -65 27.5t-27 64.5zM897 1679q0 42 26.5 67.5t65.5 25.5 t65.5 -27t26.5 -66q0 -42 -25 -67t-67 -25q-38 0 -65 27.5t-27 64.5z" />
<glyph unicode="&#x2c6;" horiz-adv-x="681" d="M61 1018l273 354h37l252 -354l-33 -14l-238 206l-254 -204z" />
<glyph unicode="&#x2dc;" horiz-adv-x="681" d="M8 1044q50 100 97.5 151.5t115.5 51.5q45 0 89.5 -19t75 -41.5t70 -41.5t76.5 -19q45 0 71.5 17.5t55.5 73.5l21 -9q-33 -84 -83 -134t-114 -50q-45 0 -89 19t-73 42.5t-63.5 42.5t-64.5 19q-52 0 -86 -22.5t-78 -92.5z" />
<glyph unicode="&#x2000;" horiz-adv-x="957" />
<glyph unicode="&#x2001;" horiz-adv-x="1915" />
<glyph unicode="&#x2002;" horiz-adv-x="957" />
<glyph unicode="&#x2003;" horiz-adv-x="1915" />
<glyph unicode="&#x2004;" horiz-adv-x="638" />
<glyph unicode="&#x2005;" horiz-adv-x="478" />
<glyph unicode="&#x2006;" horiz-adv-x="319" />
<glyph unicode="&#x2007;" horiz-adv-x="319" />
<glyph unicode="&#x2008;" horiz-adv-x="239" />
<glyph unicode="&#x2009;" horiz-adv-x="383" />
<glyph unicode="&#x200a;" horiz-adv-x="106" />
<glyph unicode="&#x2010;" horiz-adv-x="468" d="M45 414v82q0 10 7 17t18 7h168q34 0 71.5 0.5t62 1t25.5 0.5q29 -3 29 -22v-78q0 -13 -9.5 -22t-19.5 -9q-4 0 -23 1.5t-55 3t-81 1.5h-164q-29 0 -29 17z" />
<glyph unicode="&#x2011;" horiz-adv-x="468" d="M45 414v82q0 10 7 17t18 7h168q34 0 71.5 0.5t62 1t25.5 0.5q29 -3 29 -22v-78q0 -13 -9.5 -22t-19.5 -9q-4 0 -23 1.5t-55 3t-81 1.5h-164q-29 0 -29 17z" />
<glyph unicode="&#x2012;" horiz-adv-x="468" d="M45 414v82q0 10 7 17t18 7h168q34 0 71.5 0.5t62 1t25.5 0.5q29 -3 29 -22v-78q0 -13 -9.5 -22t-19.5 -9q-4 0 -23 1.5t-55 3t-81 1.5h-164q-29 0 -29 17z" />
<glyph unicode="&#x2013;" horiz-adv-x="1024" d="M0 440v97h1024v-97h-1024z" />
<glyph unicode="&#x2014;" horiz-adv-x="2048" d="M0 440v97h2048v-97h-2048z" />
<glyph unicode="&#x2018;" horiz-adv-x="401" d="M45 1159q0 53 16 94q15 40 42 79t64.5 73.5t60 53t57.5 44.5q12 9 18.5 8t15.5 -10q20 -24 11 -31q-104 -74 -164 -151q-35 -50 -35 -96q0 -20 13 -32.5t30 -14.5q65 -8 105 -36.5t40 -76.5q0 -49 -29 -81t-85 -32q-44 0 -86 27.5t-62 81.5q-12 32 -12 100z" />
<glyph unicode="&#x2019;" horiz-adv-x="401" d="M55 991q103 70 162 152q37 49 37 94q0 20 -13 33t-30 16q-64 6 -104.5 35t-40.5 78q0 48 29.5 80t84.5 32q44 0 86 -27.5t62 -82.5q12 -32 12 -98q0 -56 -16 -95q-45 -121 -226 -250q-11 -9 -17 -8.5t-15 11.5q-20 23 -11 30z" />
<glyph unicode="&#x201a;" horiz-adv-x="401" d="M55 -311q105 71 162 151q37 49 37 94q0 20 -13 33.5t-30 16.5q-64 6 -104.5 34.5t-40.5 77.5q0 48 29.5 80.5t84.5 32.5q44 0 86 -28t62 -83q12 -32 12 -98q0 -55 -16 -94q-45 -121 -226 -250q-10 -9 -16.5 -8.5t-15.5 10.5q-20 24 -11 31z" />
<glyph unicode="&#x201c;" horiz-adv-x="802" d="M45 1159q0 53 16 94q15 40 42 79t64.5 73.5t60 53t57.5 44.5q12 9 18.5 8t15.5 -10q20 -24 11 -31q-104 -74 -164 -151q-35 -50 -35 -96q0 -20 13 -32.5t30 -14.5q65 -8 105 -36.5t40 -76.5q0 -49 -29 -81t-85 -32q-44 0 -86 27.5t-62 81.5q-12 32 -12 100zM446 1159 q0 50 17 94q20 53 66 107.5t78 81t79 61.5q12 9 19 8t16 -10q20 -23 10 -31q-104 -74 -164 -151q-35 -50 -35 -96q0 -20 13 -32.5t30 -14.5q65 -8 105.5 -36.5t40.5 -76.5q0 -49 -29.5 -81t-85.5 -32q-44 0 -85.5 27t-61.5 82q-13 35 -13 100z" />
<glyph unicode="&#x201d;" horiz-adv-x="802" d="M55 991q103 70 162 152q37 49 37 94q0 20 -13 33t-30 16q-64 6 -104.5 35t-40.5 78q0 48 29.5 80t84.5 32q44 0 86 -27.5t62 -82.5q12 -32 12 -98q0 -56 -16 -95q-45 -121 -226 -250q-11 -9 -17 -8.5t-15 11.5q-20 23 -11 30zM457 991q101 69 161 152q37 49 37 94 q0 20 -13 33t-30 16q-64 6 -104.5 35t-40.5 78q0 47 29.5 79.5t85.5 32.5q44 0 85.5 -27.5t61.5 -82.5q12 -32 12 -98q0 -56 -16 -95q-46 -122 -225 -250q-11 -9 -17.5 -8.5t-15.5 11.5q-20 23 -10 30z" />
<glyph unicode="&#x201e;" horiz-adv-x="802" d="M55 -311q105 71 162 151q37 49 37 94q0 20 -13 33.5t-30 16.5q-64 6 -104.5 34.5t-40.5 77.5q0 48 29.5 80.5t84.5 32.5q44 0 86 -28t62 -83q12 -32 12 -98q0 -55 -16 -94q-45 -121 -226 -250q-10 -9 -16.5 -8.5t-15.5 10.5q-20 24 -11 31zM453 -311q103 70 161 151 q37 49 37 94q0 20 -13 33.5t-30 16.5q-64 6 -104.5 34.5t-40.5 77.5q0 48 30 80.5t85 32.5q44 0 85.5 -28t61.5 -83q12 -32 12 -98q0 -55 -16 -94q-46 -122 -225 -250q-10 -9 -17 -8.5t-16 10.5q-20 23 -10 31z" />
<glyph unicode="&#x2022;" horiz-adv-x="604" d="M66 635q0 106 64.5 175t168.5 69q112 0 175 -66.5t63 -165.5t-64 -168t-168 -69q-102 0 -170.5 64.5t-68.5 160.5z" />
<glyph unicode="&#x2026;" horiz-adv-x="2048" d="M223 86q0 54 32 88.5t85 34.5q56 0 87.5 -33.5t31.5 -83.5q0 -49 -32.5 -84t-84.5 -35q-50 0 -84.5 33.5t-34.5 79.5zM905 86q0 54 32 88.5t85 34.5q55 0 87 -34t32 -83t-32.5 -84t-84.5 -35q-50 0 -84.5 33.5t-34.5 79.5zM1589 86q0 54 32 88.5t85 34.5q55 0 87 -34 t32 -83t-32.5 -84t-84.5 -35q-50 0 -84.5 33.5t-34.5 79.5z" />
<glyph unicode="&#x202f;" horiz-adv-x="383" />
<glyph unicode="&#x205f;" horiz-adv-x="478" />
<glyph unicode="&#x20ac;" horiz-adv-x="1308" d="M102 721q0 147 37.5 278t100.5 226t143 164.5t167.5 104t172.5 34.5q149 0 266 -99t230 -299q7 -18 -9 -24q-16 -8 -20 -12q-3 -4 -13.5 -2.5t-13.5 8.5q-34 63 -77 122.5t-98.5 116.5t-121.5 92t-131 35q-50 0 -98 -14.5t-98 -46.5t-91.5 -89.5t-74.5 -136.5 t-51.5 -195.5t-18.5 -258.5q0 -160 30 -283.5t76 -196t108.5 -118.5t119 -62t115.5 -16q170 0 272.5 92.5t189.5 294.5q3 6 10.5 11.5t10.5 3.5q2 -1 7 -4.5t9.5 -7t5.5 -3.5q2 0 4.5 -4t3 -10t-2.5 -12q-63 -203 -201.5 -325t-317.5 -122q-98 0 -190.5 29t-174.5 90.5 t-143 149t-97 213.5t-36 276zM240 805v78h583v-78h-583zM242 575v78h583v-78h-583z" />
<glyph unicode="&#x2122;" horiz-adv-x="1738" d="M47 1491.5q-1 5.5 4 7.5q172 0 403 3t251 3q2 0 0.5 -7t-2.5 -14.5t2 -13.5l-224 -2q-32 -1 -38 -19t-5 -97v-16v-16.5v-19.5l4 -454l-94 -4q0 513 -2 583q0 26 -15.5 32.5t-68.5 6.5l-213 2q2 2 0.5 11t-2.5 14.5zM889 846v653q0 3 27 3t55 -2t30 -5q18 -38 220 -494 l219 498q0 4 6 4l92 2l2 -661h-92v573l-238 -540q-6 -11 -14 -11h-8q-12 4 -14 11q-16 39 -35 80t-72 160t-133 300q1 -86 1 -174.5v-156t-0.5 -120t-0.5 -86v-34.5h-45z" />
<glyph unicode="&#x25fc;" horiz-adv-x="890" d="M0 0v891h891v-891h-891z" />
<glyph unicode="&#xfb01;" horiz-adv-x="1122" d="M35 836v26q0 17 12 17l174 2q0 45 1 57t1 37q0 55 20 140.5t44 144.5q30 81 80 143t107.5 96.5t114.5 52t111 17.5q100 0 148.5 -41t48.5 -98q0 -31 -28 -57.5t-64 -26.5q-45 0 -74 26q-11 10 -28 43t-40.5 54.5t-60.5 21.5q-51 0 -108.5 -61.5t-92.5 -169.5 q-45 -140 -45 -373h353q19 0 64 8.5t81 17.5l35 9q29 6 29 -19v-749q0 -71 49 -93q23 -10 69 -10q18 -1 23.5 -7t5.5 -19q0 -25 -21 -25q-8 0 -197 -2t-200 -2q-22 0 -22 20q0 24 20 27q80 7 100 18q37 19 37 99v510q0 64 -30 107.5t-78 43.5h-318q1 -99 3 -268.5t3 -274.5 t0 -124q-2 -33 13 -60t39 -33q16 -6 49 -11t47 -5q15 0 20 -5.5t5 -19.5q0 -28 -21 -28q-4 0 -30.5 2t-76.5 4t-110 2q-52 -1 -97 -2t-66.5 -1.5t-27.5 -0.5q-20 0 -20 24q0 14 4 19t16 6q48 4 76 21q41 20 41 94q0 147 -4 663h-166q-18 0 -18 13z" />
<glyph unicode="&#xfb02;" horiz-adv-x="1081" d="M53 836v26q0 17 13 17l157 2q2 30 4 71.5t4.5 75.5t6.5 70q9 77 41 159q35 86 84.5 149t104 97t107 50t105.5 16q59 0 96 -33q15 7 31.5 15t27.5 13t15 7q31 9 31 -19q0 -2 1 -687.5t1 -710.5q0 -80 51 -93q18 -6 63 -14q18 -1 22.5 -5t4.5 -17t-3.5 -19t-14.5 -6 q-8 0 -189 -2t-190 -2q-25 0 -25 20q0 24 21 27q46 4 82 23q43 22 43 94q0 210 -3 661h-389v-667q-1 -32 16 -59.5t42 -33.5q40 -14 63 -14q15 0 20 -6t5 -21q0 -14 -4.5 -19t-16.5 -5q-4 0 -22.5 1t-60 2t-101.5 1q-52 -1 -97 -2t-66.5 -1.5t-27.5 -0.5q-20 0 -20 24 q0 14 4 19t16 6q48 4 76 21q41 20 41 94v663h-151q-19 0 -19 13zM356 881q79 0 225.5 -1t163.5 -1v436q0 62 -2 78h-4q-45 0 -71 41q-35 63 -74 63q-79 0 -134.5 -85.5t-82.5 -231.5q-14 -76 -21 -299zM479 47q15 0 20 -6t5 -21q0 -14 -4.5 -19t-16.5 -5z" />
</font>
</defs>
</svg>
